STARTFONT 2.1
COMMENT
COMMENT Converted from OpenType font "..\ttf\Gotham Book Regular.otf" by "otf2bdf.exe 3.0".
COMMENT
FONT -FreeType-Gotham Book-Medium-R-Normal--44-320-100-100-P-213-ISO10646-1
SIZE 32 100 100
FONTBOUNDINGBOX 54 49 -3 -8
STARTPROPERTIES 19
FOUNDRY "FreeType"
FAMILY_NAME "Gotham Book"
WEIGHT_NAME "Medium"
SLANT "R"
SETWIDTH_NAME "Normal"
ADD_STYLE_NAME ""
PIXEL_SIZE 44
POINT_SIZE 320
RESOLUTION_X 100
RESOLUTION_Y 100
SPACING "P"
AVERAGE_WIDTH 213
CHARSET_REGISTRY "ISO10646"
CHARSET_ENCODING "1"
FONT_ASCENT 39
FONT_DESCENT 7
COPYRIGHT "HTF Gothamª Copr. 2000 The Hoefler Type Foundry, Inc. Info: www.typography.com"
_OTF_FONTFILE "..\ttf\Gotham Book Regular.otf"
_OTF_PSNAME "Gotham-Book"
ENDPROPERTIES
CHARS 223
STARTCHAR 0020
ENCODING 32
SWIDTH 292 0
DWIDTH 13 0
BBX 0 0 0 0
BITMAP
ENDCHAR
STARTCHAR 0021
ENCODING 33
SWIDTH 270 0
DWIDTH 12 0
BBX 4 31 4 1
BITMAP
F0
F0
F0
F0
F0
F0
F0
F0
F0
F0
F0
F0
60
60
60
60
60
60
60
60
60
60
00
00
00
00
F0
F0
F0
F0
F0
ENDCHAR
STARTCHAR 0022
ENCODING 34
SWIDTH 450 0
DWIDTH 20 0
BBX 14 12 3 20
BITMAP
783C
783C
7838
7038
7078
7070
E070
E070
E060
E060
C060
C060
ENDCHAR
STARTCHAR 0023
ENCODING 35
SWIDTH 697 0
DWIDTH 31 0
BBX 27 31 2 1
BITMAP
00700E00
00700E00
00F00E00
00E00E00
00E00E00
00E00E00
00E01E00
00E01C00
3FFFFFE0
3FFFFFE0
3FFFFFE0
01C03C00
01C03800
01C03800
03C03800
03803800
03803800
03807800
03807000
03807000
FFFFFF80
FFFFFF80
FFFFFF80
0700F000
0700E000
0F00E000
0E00E000
0E00E000
0E00E000
0E01C000
0E01C000
ENDCHAR
STARTCHAR 0024
ENCODING 36
SWIDTH 630 0
DWIDTH 28 0
BBX 22 38 3 -5
BITMAP
003800
003800
003800
01FF00
07FFC0
1FFFF0
3E39F8
3C3878
783830
703800
703800
703800
703800
783800
7C3800
3F3800
1FF800
0FFE00
03FFC0
007FE0
003FF0
0038F8
00383C
00383C
00381C
00381C
00381C
60381C
F0383C
FC3878
7F39F8
1FFFF0
07FFC0
00FE00
003800
003800
003800
003800
ENDCHAR
STARTCHAR 0025
ENCODING 37
SWIDTH 832 0
DWIDTH 37 0
BBX 33 31 2 1
BITMAP
07C0003800
1FF0007000
3C7800F000
703800E000
701C01C000
701C038000
E01C078000
E01C070000
E01C0E0000
701C1C0000
701C1C0000
783C380000
3C78700000
1FF0F00000
0FE0E00000
0001C06000
000383F800
000787FE00
00070F1E00
000E0E0700
001C1C0700
003C1C0380
00381C0380
00701C0380
00E01C0380
00E01C0300
01C01C0700
03800E0F00
07000F9E00
070007FC00
0E0001F000
ENDCHAR
STARTCHAR 0026
ENCODING 38
SWIDTH 697 0
DWIDTH 31 0
BBX 27 31 2 0
BITMAP
007F0000
01FFC000
03FFE000
07C1E000
0780F000
07007000
0F007000
0F007000
07007000
0700F000
0781E000
03C3C000
03FF8000
01FE0000
03F80000
0FFC0180
1F3E01C0
3C1F03C0
780F8380
7007C780
F003E700
F001FF00
F000FE00
F0007C00
F0003E00
7800FF00
7801FF80
3E07E7C0
1FFF83E0
0FFF01E0
03F800C0
ENDCHAR
STARTCHAR 0027
ENCODING 39
SWIDTH 247 0
DWIDTH 11 0
BBX 5 12 3 20
BITMAP
78
78
78
70
70
70
E0
E0
E0
E0
C0
C0
ENDCHAR
STARTCHAR 0028
ENCODING 40
SWIDTH 427 0
DWIDTH 19 0
BBX 14 38 3 -7
BITMAP
0008
0038
007C
00F0
01E0
03C0
0780
0F00
1E00
1C00
3C00
3800
7800
7000
7000
F000
F000
F000
F000
F000
F000
F000
F000
F000
7000
7800
7800
3C00
3C00
1E00
1F00
0F00
0780
03C0
01F0
00F8
0078
0018
ENDCHAR
STARTCHAR 0029
ENCODING 41
SWIDTH 427 0
DWIDTH 19 0
BBX 13 38 3 -7
BITMAP
4000
E000
F800
7C00
3E00
0F00
0780
07C0
03C0
01E0
00E0
00F0
0070
0078
0078
0078
0038
0038
0038
0038
0038
0038
0038
0078
0078
0070
00F0
00F0
01E0
01C0
03C0
0780
0F00
1E00
3C00
F800
F000
C000
ENDCHAR
STARTCHAR 002A
ENCODING 42
SWIDTH 427 0
DWIDTH 19 0
BBX 13 13 3 18
BITMAP
0700
0300
4210
6238
F278
1FC0
0700
1FC0
7AF0
F278
4210
0300
0700
ENDCHAR
STARTCHAR 002B
ENCODING 43
SWIDTH 630 0
DWIDTH 28 0
BBX 22 21 3 5
BITMAP
003800
003800
003800
003800
003800
003800
003800
003800
003800
FFFFFC
FFFFFC
FFFFFC
003800
003800
003800
003800
003800
003800
003800
003800
003800
ENDCHAR
STARTCHAR 002C
ENCODING 44
SWIDTH 247 0
DWIDTH 11 0
BBX 6 10 2 -6
BITMAP
7C
7C
7C
7C
7C
18
18
38
70
E0
ENDCHAR
STARTCHAR 002D
ENCODING 45
SWIDTH 405 0
DWIDTH 18 0
BBX 12 3 3 12
BITMAP
FFF0
FFF0
FFF0
ENDCHAR
STARTCHAR 002E
ENCODING 46
SWIDTH 247 0
DWIDTH 11 0
BBX 5 5 3 0
BITMAP
F8
F8
F8
F8
F8
ENDCHAR
STARTCHAR 002F
ENCODING 47
SWIDTH 517 0
DWIDTH 23 0
BBX 24 42 -1 -6
BITMAP
000007
00000E
00000E
00001C
00001C
000038
000038
000070
000070
0000E0
0000E0
0001C0
0001C0
000380
000380
000700
000700
000E00
000E00
001C00
001C00
003800
003800
007000
007000
00E000
00E000
01C000
01C000
038000
038000
070000
070000
0E0000
0E0000
1C0000
1C0000
380000
380000
700000
700000
E00000
ENDCHAR
STARTCHAR 0030
ENCODING 48
SWIDTH 720 0
DWIDTH 32 0
BBX 26 31 3 1
BITMAP
007F8000
01FFE000
07FFF800
0FC0FC00
1F003E00
1E001E00
3C000F00
38000F00
78000780
70000780
F0000380
F00003C0
F00003C0
F00003C0
E00003C0
E00003C0
E00003C0
F00003C0
F00003C0
F00003C0
F0000380
78000780
78000780
3C000F00
3C000F00
1E001E00
1F803C00
0FE1F800
07FFF000
01FFE000
003F0000
ENDCHAR
STARTCHAR 0031
ENCODING 49
SWIDTH 360 0
DWIDTH 16 0
BBX 10 31 1 1
BITMAP
03C0
1FC0
FFC0
7FC0
71C0
01C0
01C0
01C0
01C0
01C0
01C0
01C0
01C0
01C0
01C0
01C0
01C0
01C0
01C0
01C0
01C0
01C0
01C0
01C0
01C0
01C0
01C0
01C0
01C0
01C0
01C0
ENDCHAR
STARTCHAR 0032
ENCODING 50
SWIDTH 607 0
DWIDTH 27 0
BBX 22 31 2 1
BITMAP
00FF00
03FFC0
0FFFE0
1F83F0
3E00F8
7C0078
780078
30003C
00003C
00003C
000038
000078
000078
0000F0
0000F0
0001E0
0003C0
000780
001F00
003E00
007C00
00F800
01E000
03C000
0F8000
1F0000
3E0000
7C0000
FFFFFC
FFFFFC
FFFFFC
ENDCHAR
STARTCHAR 0033
ENCODING 51
SWIDTH 607 0
DWIDTH 27 0
BBX 22 31 2 1
BITMAP
3FFFFC
3FFFFC
3FFFFC
000078
0000F0
0001E0
0003C0
000780
000F00
001E00
003C00
007800
00F000
00FE00
01FFC0
00FFE0
0003F0
0000F8
00007C
00003C
00003C
00001C
00001C
00003C
70003C
F80078
7E00F8
3F83F0
1FFFE0
07FFC0
00FE00
ENDCHAR
STARTCHAR 0034
ENCODING 52
SWIDTH 675 0
DWIDTH 30 0
BBX 25 31 2 1
BITMAP
00007800
0000F800
0001F800
0001F800
0003F800
0007F800
000F7800
001E7800
003C7800
00387800
00787800
00F07800
01E07800
03C07800
07807800
07007800
0F007800
1E007800
3C007800
78007800
F0007800
FFFFFF80
FFFFFF80
7FFFFF80
00007800
00007800
00007800
00007800
00007800
00007800
00007800
ENDCHAR
STARTCHAR 0035
ENCODING 53
SWIDTH 607 0
DWIDTH 27 0
BBX 22 31 3 1
BITMAP
3FFFF0
3FFFF0
3FFFF0
380000
380000
380000
380000
380000
380000
380000
380000
380000
3BFF00
7FFFC0
7FFFE0
1801F0
0000F8
000078
000038
00003C
00003C
00003C
000038
000038
600078
F000F8
FC01F0
7F07E0
3FFFC0
0FFF80
01FC00
ENDCHAR
STARTCHAR 0036
ENCODING 54
SWIDTH 652 0
DWIDTH 29 0
BBX 23 31 3 1
BITMAP
007F80
01FFE0
07FFF8
0FC0FC
1F0038
1E0010
3C0000
780000
780000
700000
F00000
F00000
F0FF80
F3FFE0
E7FFF0
EF00F8
FC007C
F8003C
F8001E
F0001E
F0001E
F0001E
F0001E
70001E
78001C
3C003C
3E0078
1F81F0
0FFFE0
03FFC0
00FE00
ENDCHAR
STARTCHAR 0037
ENCODING 55
SWIDTH 585 0
DWIDTH 26 0
BBX 21 31 3 1
BITMAP
FFFFF8
FFFFF8
FFFFF8
000078
0000F0
0000F0
0001E0
0001E0
0003C0
0003C0
000780
000780
000F00
000F00
001E00
001E00
003C00
003C00
007800
007800
00F000
00F000
01E000
01E000
03C000
03C000
078000
078000
0F0000
0F0000
1E0000
ENDCHAR
STARTCHAR 0038
ENCODING 56
SWIDTH 630 0
DWIDTH 28 0
BBX 24 31 2 1
BITMAP
00FF00
03FFE0
0FFFF0
1F81F8
3E007C
3C003C
38001E
78001E
78001E
38001C
3C001C
3C003C
1F0078
0FE7F0
03FFC0
07FFE0
0FFFF0
3E007C
3C003E
78001E
70000E
F0000F
F0000F
F0000F
70000E
78001E
3C003C
3F80FC
0FFFF0
07FFE0
00FF00
ENDCHAR
STARTCHAR 0039
ENCODING 57
SWIDTH 652 0
DWIDTH 29 0
BBX 23 31 3 1
BITMAP
01FE00
07FF80
1FFFE0
3F03F0
3C00F8
780078
70003C
F0003C
F0001C
E0001E
E0001E
F0001E
F0003E
F8003E
78007E
3E01FE
3FCFDE
0FFF9E
07FE1E
00001E
00001C
00003C
00003C
000078
000078
3000F0
7801E0
7F07C0
3FFF80
0FFF00
01F800
ENDCHAR
STARTCHAR 003A
ENCODING 58
SWIDTH 247 0
DWIDTH 11 0
BBX 4 23 4 0
BITMAP
F0
F0
F0
F0
F0
00
00
00
00
00
00
00
00
00
00
00
00
00
F0
F0
F0
F0
F0
ENDCHAR
STARTCHAR 003B
ENCODING 59
SWIDTH 247 0
DWIDTH 11 0
BBX 6 28 2 -6
BITMAP
3C
3C
3C
3C
3C
00
00
00
00
00
00
00
00
00
00
00
00
00
3C
3C
3C
3C
3C
1C
18
18
70
E0
ENDCHAR
STARTCHAR 003C
ENCODING 60
SWIDTH 630 0
DWIDTH 28 0
BBX 21 23 3 4
BITMAP
000018
000078
0001F8
0007F0
001FC0
007F00
01FC00
07F000
1FC000
7F0000
FC0000
F00000
FC0000
3F0000
0FC000
03F800
00FE00
003F80
000FE0
0003F8
0000F8
000038
000008
ENDCHAR
STARTCHAR 003D
ENCODING 61
SWIDTH 630 0
DWIDTH 28 0
BBX 20 14 4 8
BITMAP
FFFFF0
FFFFF0
FFFFF0
FFFFF0
000000
000000
000000
000000
000000
000000
000000
FFFFF0
FFFFF0
FFFFF0
ENDCHAR
STARTCHAR 003E
ENCODING 62
SWIDTH 630 0
DWIDTH 28 0
BBX 21 23 4 4
BITMAP
C00000
F00000
FC0000
7F0000
0FC000
03F000
00FC00
003F00
000FC0
0003F0
0000F8
000078
0001F8
0007F0
001FC0
007F00
01FC00
07F000
1FC000
7F0000
FC0000
F00000
C00000
ENDCHAR
STARTCHAR 003F
ENCODING 63
SWIDTH 540 0
DWIDTH 24 0
BBX 20 31 2 1
BITMAP
03FC00
1FFF00
3FFF80
7E0FC0
F803E0
E001E0
4000F0
0000F0
0000F0
0000F0
0000F0
0001E0
0001E0
0003C0
001F80
01FF00
01FC00
01E000
01C000
01C000
00C000
00C000
000000
000000
000000
000000
01E000
01E000
01E000
01E000
01E000
ENDCHAR
STARTCHAR 0040
ENCODING 64
SWIDTH 990 0
DWIDTH 44 0
BBX 39 39 2 -7
BITMAP
0001FF8000
000FE7F000
003C003C00
0060000F00
01C0000380
03000001C0
0600000060
0C00000030
0C00000030
18003C0018
1001FF1C0C
3003FFB80C
200783F804
600F00F806
601E00F806
401C007806
4038007802
C038007002
C038007002
C078007002
C078007006
C07800F006
403800F004
403C01F00C
603E03F00C
601F9F7018
200FFE3C70
3007F81FC0
1000000000
1800000000
0C00000000
0600000000
0700000000
0380000000
00C0000000
0070000700
001E003C00
0007FFF000
00007F0000
ENDCHAR
STARTCHAR 0041
ENCODING 65
SWIDTH 787 0
DWIDTH 35 0
BBX 31 31 2 1
BITMAP
0003C000
0007C000
0007C000
000FE000
000EE000
001EF000
001C7000
003C7800
00383800
00383C00
00783C00
00701E00
00F01E00
00E00E00
01E00F00
01C00700
03C00780
03800380
078003C0
070003C0
07FFFFE0
0FFFFFE0
0FFFFFF0
1E0000F0
1C000070
3C000078
38000038
7800003C
7000003C
F000001E
F000001E
ENDCHAR
STARTCHAR 0042
ENCODING 66
SWIDTH 720 0
DWIDTH 32 0
BBX 26 31 4 1
BITMAP
FFFFC000
FFFFF000
FFFFFC00
F000FE00
F0001E00
F0001F00
F0000F00
F0000F00
F0000F00
F0000F00
F0000E00
F0001E00
F0003C00
F001F800
FFFFF000
FFFFF800
FFFFFC00
F0003F00
F0000F00
F0000780
F0000380
F0000380
F00003C0
F0000380
F0000780
F0000780
F0000F00
F0007F00
FFFFFE00
FFFFF800
FFFFC000
ENDCHAR
STARTCHAR 0043
ENCODING 67
SWIDTH 742 0
DWIDTH 33 0
BBX 28 31 3 1
BITMAP
001FF800
007FFE00
01FFFF80
03F01FE0
0FC003F0
0F0001E0
1E000040
3C000000
3C000000
78000000
78000000
70000000
F0000000
F0000000
F0000000
F0000000
F0000000
F0000000
F0000000
70000000
78000000
78000000
3C000000
3E000000
1E000060
0F8001F0
0FC003E0
03F81FC0
01FFFF80
007FFE00
000FF000
ENDCHAR
STARTCHAR 0044
ENCODING 68
SWIDTH 787 0
DWIDTH 35 0
BBX 28 31 4 1
BITMAP
FFFF0000
FFFFE000
FFFFF800
F003FC00
F0007E00
F0001F00
F0000F80
F00007C0
F00003C0
F00001E0
F00001E0
F00001E0
F00000F0
F00000F0
F00000F0
F00000F0
F00000F0
F00000F0
F00000E0
F00001E0
F00001E0
F00001E0
F00003C0
F00007C0
F0000F80
F0001F00
F0007E00
F003FC00
FFFFF000
FFFFC000
FFFE0000
ENDCHAR
STARTCHAR 0045
ENCODING 69
SWIDTH 675 0
DWIDTH 30 0
BBX 23 31 4 1
BITMAP
FFFFFE
FFFFFE
FFFFFE
F00000
F00000
F00000
F00000
F00000
F00000
F00000
F00000
F00000
F00000
F00000
FFFFF8
FFFFF8
FFFFF8
F00000
F00000
F00000
F00000
F00000
F00000
F00000
F00000
F00000
F00000
F00000
FFFFFE
FFFFFE
FFFFFE
ENDCHAR
STARTCHAR 0046
ENCODING 70
SWIDTH 652 0
DWIDTH 29 0
BBX 23 31 4 1
BITMAP
FFFFFE
FFFFFE
FFFFFE
F00000
F00000
F00000
F00000
F00000
F00000
F00000
F00000
F00000
F00000
F00000
FFFFF8
FFFFF8
FFFFF8
F00000
F00000
F00000
F00000
F00000
F00000
F00000
F00000
F00000
F00000
F00000
F00000
F00000
F00000
ENDCHAR
STARTCHAR 0047
ENCODING 71
SWIDTH 787 0
DWIDTH 35 0
BBX 28 31 3 1
BITMAP
001FF800
007FFF00
01FFFF80
03F01FE0
0FC003E0
0F0000C0
1E000000
3C000000
3C000000
78000000
78000000
70000000
F0000000
F0000000
F001FFF0
F001FFF0
F001FFF0
F0000070
F0000070
F0000070
78000070
78000070
3C000070
3C000070
1E000070
1F0000F0
0FC003F0
07F81FE0
01FFFF80
007FFE00
000FF000
ENDCHAR
STARTCHAR 0048
ENCODING 72
SWIDTH 765 0
DWIDTH 34 0
BBX 25 31 4 1
BITMAP
F0000380
F0000380
F0000380
F0000380
F0000380
F0000380
F0000380
F0000380
F0000380
F0000380
F0000380
F0000380
F0000380
F0000380
FFFFFF80
FFFFFF80
FFFFFF80
F0000380
F0000380
F0000380
F0000380
F0000380
F0000380
F0000380
F0000380
F0000380
F0000380
F0000380
F0000380
F0000380
F0000380
ENDCHAR
STARTCHAR 0049
ENCODING 73
SWIDTH 292 0
DWIDTH 13 0
BBX 3 31 5 1
BITMAP
E0
E0
E0
E0
E0
E0
E0
E0
E0
E0
E0
E0
E0
E0
E0
E0
E0
E0
E0
E0
E0
E0
E0
E0
E0
E0
E0
E0
E0
E0
E0
ENDCHAR
STARTCHAR 004A
ENCODING 74
SWIDTH 562 0
DWIDTH 25 0
BBX 20 31 1 1
BITMAP
0000F0
0000F0
0000F0
0000F0
0000F0
0000F0
0000F0
0000F0
0000F0
0000F0
0000F0
0000F0
0000F0
0000F0
0000F0
0000F0
0000F0
0000F0
0000F0
0000F0
0000F0
0000F0
0000F0
0000E0
3001E0
F801E0
7C03C0
3F1FC0
1FFF80
0FFE00
01F800
ENDCHAR
STARTCHAR 004B
ENCODING 75
SWIDTH 720 0
DWIDTH 32 0
BBX 27 31 4 1
BITMAP
F00007C0
F0000F80
F0001F00
F0003E00
F0007C00
F000F800
F001F000
F003E000
F007C000
F0078000
F00F0000
F01E0000
F03C0000
F0780000
F0FC0000
F1FE0000
F3DE0000
F78F0000
FF078000
FE07C000
FC03E000
F801E000
F000F000
F0007800
F0007C00
F0003E00
F0001E00
F0000F00
F0000780
F00007C0
F00003E0
ENDCHAR
STARTCHAR 004C
ENCODING 76
SWIDTH 630 0
DWIDTH 28 0
BBX 21 31 4 1
BITMAP
F00000
F00000
F00000
F00000
F00000
F00000
F00000
F00000
F00000
F00000
F00000
F00000
F00000
F00000
F00000
F00000
F00000
F00000
F00000
F00000
F00000
F00000
F00000
F00000
F00000
F00000
F00000
F00000
FFFFF8
FFFFF8
FFFFF8
ENDCHAR
STARTCHAR 004D
ENCODING 77
SWIDTH 877 0
DWIDTH 39 0
BBX 30 31 4 1
BITMAP
F000003C
F800003C
FC00007C
FC0000FC
FE0000FC
FF0001FC
FF0003DC
F780039C
F3C0079C
F3C00F1C
F1E00E1C
F0F01E1C
F0F03C1C
F078381C
F03C781C
F03CF01C
F01EE01C
F00FE01C
F00FC01C
F007801C
F003801C
F003001C
F000001C
F000001C
F000001C
F000001C
F000001C
F000001C
F000001C
F000001C
F000001C
ENDCHAR
STARTCHAR 004E
ENCODING 78
SWIDTH 787 0
DWIDTH 35 0
BBX 27 31 4 1
BITMAP
F00001E0
F80001E0
FC0001E0
FE0001E0
FE0001E0
FF0001E0
F78001E0
F7C001E0
F3C001E0
F1E001E0
F0F001E0
F07801E0
F07C01E0
F03C01E0
F01E01E0
F00F01E0
F00F81E0
F007C1E0
F003C1E0
F001E1E0
F000F1E0
F000F9E0
F0007DE0
F0003DE0
F0001FE0
F0000FE0
F0000FE0
F00007E0
F00003E0
F00001E0
F00000E0
ENDCHAR
STARTCHAR 004F
ENCODING 79
SWIDTH 855 0
DWIDTH 38 0
BBX 32 31 3 1
BITMAP
001FF800
007FFE00
01FFFF80
03F01FC0
07C003E0
0F0001F0
1E0000F8
3C00007C
3C00003C
7800001E
7800001E
7000000E
F000000F
F000000F
F000000F
F000000F
F000000F
F000000F
F000000E
7000000E
7800001E
7800001E
3C00003C
3E00007C
1F0000F8
0F8001F0
07C003E0
03F81FC0
01FFFF80
007FFE00
000FF000
ENDCHAR
STARTCHAR 0050
ENCODING 80
SWIDTH 675 0
DWIDTH 30 0
BBX 24 31 4 1
BITMAP
FFFF80
FFFFE0
FFFFF0
F001FC
F0007C
F0001E
F0001E
F0000E
F0000F
F0000F
F0000F
F0000F
F0000E
F0001E
F0003E
F0007C
F003F8
FFFFF0
FFFFC0
FFFE00
F00000
F00000
F00000
F00000
F00000
F00000
F00000
F00000
F00000
F00000
F00000
ENDCHAR
STARTCHAR 0051
ENCODING 81
SWIDTH 855 0
DWIDTH 38 0
BBX 32 31 3 0
BITMAP
001FF800
007FFE00
01FFFF80
03F01FC0
07C003E0
0F0001F0
1E0000F8
3C00007C
3C00003C
7800001E
7800001E
7000000E
F000000F
F000000F
F000000F
F000000F
F000000F
F000000F
F000100E
7000181E
78003C1E
78003E1E
3C001FBC
3E0007F8
1F0003F8
0F8001F0
07C003F8
03F81FFE
01FFFF9F
007FFE0E
000FF006
ENDCHAR
STARTCHAR 0052
ENCODING 82
SWIDTH 720 0
DWIDTH 32 0
BBX 26 31 4 1
BITMAP
FFFFC000
FFFFF800
FFFFFC00
F000FE00
F0001F00
F0000F00
F0000780
F0000780
F0000780
F0000780
F0000780
F0000780
F0000700
F0000F00
F0001E00
F001FC00
FFFFF800
FFFFE000
FFFF8000
F007C000
F003C000
F001E000
F001F000
F000F800
F0007800
F0003C00
F0003E00
F0001F00
F0000F00
F0000780
F00007C0
ENDCHAR
STARTCHAR 0053
ENCODING 83
SWIDTH 630 0
DWIDTH 28 0
BBX 23 31 3 1
BITMAP
01FF00
07FFE0
1FFFF0
3F03FC
3C0078
780010
700000
700000
700000
700000
780000
7C0000
3F0000
1FE000
0FFE00
03FFC0
007FF0
0007F8
0000FC
00003C
00001E
00001E
00001E
00001E
60001C
F0003C
FC007C
7F81F8
1FFFF0
07FFC0
00FF00
ENDCHAR
STARTCHAR 0054
ENCODING 84
SWIDTH 652 0
DWIDTH 29 0
BBX 25 31 2 1
BITMAP
FFFFFF80
FFFFFF80
FFFFFF80
001C0000
001C0000
001C0000
001C0000
001C0000
001C0000
001C0000
001C0000
001C0000
001C0000
001C0000
001C0000
001C0000
001C0000
001C0000
001C0000
001C0000
001C0000
001C0000
001C0000
001C0000
001C0000
001C0000
001C0000
001C0000
001C0000
001C0000
001C0000
ENDCHAR
STARTCHAR 0055
ENCODING 85
SWIDTH 765 0
DWIDTH 34 0
BBX 26 31 4 1
BITMAP
E00003C0
E00003C0
E00003C0
E00003C0
E00003C0
E00003C0
E00003C0
E00003C0
E00003C0
E00003C0
E00003C0
E00003C0
E00003C0
E00003C0
E00003C0
E00003C0
E00003C0
E00003C0
E00003C0
F00003C0
F00003C0
F0000380
70000380
78000780
7C000F00
3C000F00
1F003E00
1FC1FC00
07FFF800
03FFE000
007F8000
ENDCHAR
STARTCHAR 0056
ENCODING 86
SWIDTH 742 0
DWIDTH 33 0
BBX 29 31 2 1
BITMAP
F0000038
F0000078
78000070
780000F0
3C0000F0
3C0001E0
1C0001E0
1E0001C0
1E0003C0
0F000380
0F000780
07000780
07800700
03800F00
03C00E00
03C01E00
01E01C00
01E03C00
00E03C00
00F03800
00707800
00787000
0078F000
0038E000
003CE000
001DE000
001FC000
000FC000
000F8000
000F8000
00070000
ENDCHAR
STARTCHAR 0057
ENCODING 87
SWIDTH 1102 0
DWIDTH 49 0
BBX 45 31 2 1
BITMAP
F00007000078
700007800078
78000F800070
78000F8000F0
38000FC000F0
3C001FC000E0
3C001DC001E0
1C001DE001E0
1E003DE001C0
1E0038E003C0
0F0038F00380
0F0078700380
0F0070700780
078070780700
0780F0380F00
0380E0380F00
03C0E03C0E00
03C1E01C1E00
01C1C01C1E00
01E1C01E1C00
01E3C00E3C00
00E3800E3C00
00F3800F3800
00F780077800
007700077000
007F0007F000
007F0003F000
003E0003E000
003E0003E000
001E0001E000
001C0001C000
ENDCHAR
STARTCHAR 0058
ENCODING 88
SWIDTH 720 0
DWIDTH 32 0
BBX 28 31 2 1
BITMAP
780001E0
3C0003E0
3E0003C0
1E000780
0F000F00
07801E00
07C01E00
03C03C00
01E07800
00F0F000
00F8F000
0079E000
003FC000
001F8000
000F8000
000F8000
001F8000
003FC000
0079E000
0079F000
00F0F000
01E07800
03C03C00
03C03E00
07801E00
0F000F00
1E000780
1E0007C0
3C0003C0
780001E0
F00000F0
ENDCHAR
STARTCHAR 0059
ENCODING 89
SWIDTH 720 0
DWIDTH 32 0
BBX 28 31 2 1
BITMAP
F00000F0
F80001E0
780001E0
3C0003C0
3E000780
1E000780
0F000F00
0F801E00
07801E00
03C03C00
03E07800
01E07800
00F0F000
0079E000
0079E000
003FC000
001F8000
001F0000
000F0000
000F0000
000F0000
000F0000
000F0000
000F0000
000F0000
000F0000
000F0000
000F0000
000F0000
000F0000
000F0000
ENDCHAR
STARTCHAR 005A
ENCODING 90
SWIDTH 697 0
DWIDTH 31 0
BBX 25 31 3 1
BITMAP
7FFFFF80
7FFFFF80
7FFFFF80
00000F00
00001E00
00003C00
00007C00
00007800
0000F000
0001E000
0003C000
0007C000
00078000
000F0000
001E0000
003C0000
003C0000
00780000
00F00000
01E00000
03C00000
03C00000
07800000
0F000000
1E000000
3E000000
3C000000
78000000
FFFFFF80
FFFFFF80
FFFFFF80
ENDCHAR
STARTCHAR 005B
ENCODING 91
SWIDTH 450 0
DWIDTH 20 0
BBX 13 37 4 -5
BITMAP
FFF8
FFF8
FFF8
E000
E000
E000
E000
E000
E000
E000
E000
E000
E000
E000
E000
E000
E000
E000
E000
E000
E000
E000
E000
E000
E000
E000
E000
E000
E000
E000
E000
E000
E000
E000
FFF8
FFF8
FFF8
ENDCHAR
STARTCHAR 005C
ENCODING 92
SWIDTH 517 0
DWIDTH 23 0
BBX 23 42 0 -6
BITMAP
E00000
E00000
700000
700000
380000
380000
1C0000
1C0000
0E0000
0E0000
070000
070000
038000
038000
01C000
01C000
00E000
00E000
007000
007000
003800
003800
001C00
001C00
000E00
000E00
000700
000700
000380
000380
0001C0
0001C0
0000E0
0000E0
000070
000070
000038
000038
00001C
00001C
00000E
00000E
ENDCHAR
STARTCHAR 005D
ENCODING 93
SWIDTH 450 0
DWIDTH 20 0
BBX 12 37 3 -5
BITMAP
FFF0
FFF0
FFF0
0070
0070
0070
0070
0070
0070
0070
0070
0070
0070
0070
0070
0070
0070
0070
0070
0070
0070
0070
0070
0070
0070
0070
0070
0070
0070
0070
0070
0070
0070
0070
FFF0
FFF0
FFF0
ENDCHAR
STARTCHAR 005E
ENCODING 94
SWIDTH 495 0
DWIDTH 22 0
BBX 16 9 3 22
BITMAP
03C0
03E0
07E0
0E70
1C38
1C3C
381C
700E
E007
ENDCHAR
STARTCHAR 005F
ENCODING 95
SWIDTH 607 0
DWIDTH 27 0
BBX 27 3 0 -8
BITMAP
FFFFFFE0
FFFFFFE0
FFFFFFE0
ENDCHAR
STARTCHAR 0060
ENCODING 96
SWIDTH 495 0
DWIDTH 22 0
BBX 7 7 7 26
BITMAP
20
F0
F8
78
3C
1E
0E
ENDCHAR
STARTCHAR 0061
ENCODING 97
SWIDTH 585 0
DWIDTH 26 0
BBX 20 23 2 0
BITMAP
03FC00
1FFF80
3FFFC0
1C07E0
1001E0
0000F0
000070
000070
000070
03FE70
1FFFF0
3FFFF0
7C0070
780070
F00070
F00070
F00070
F000F0
F001F0
7803F0
3E1F70
1FFE70
07F070
ENDCHAR
STARTCHAR 0062
ENCODING 98
SWIDTH 675 0
DWIDTH 30 0
BBX 23 32 4 1
BITMAP
E00000
E00000
E00000
E00000
E00000
E00000
E00000
E00000
E00000
E07E00
E1FFC0
E3FFE0
E783F0
EE00F8
FC007C
F8003C
F0001C
F0001E
E0001E
E0001E
E0001E
E0001E
E0001E
F0001E
F0001C
F8003C
F8003C
FC0078
EF01F0
E7FFE0
E3FF80
E07E00
ENDCHAR
STARTCHAR 0063
ENCODING 99
SWIDTH 562 0
DWIDTH 25 0
BBX 21 23 2 0
BITMAP
007F00
03FFC0
07FFF0
0F81F8
1E0078
3C0030
380000
780000
700000
700000
F00000
F00000
F00000
700000
700000
780000
3C0000
3C0010
1F0078
0F81F8
07FFF0
03FFC0
007F00
ENDCHAR
STARTCHAR 0064
ENCODING 100
SWIDTH 675 0
DWIDTH 30 0
BBX 23 32 3 1
BITMAP
00001E
00001E
00001E
00001E
00001E
00001E
00001E
00001E
00001E
01FC1E
07FF1E
0FFF9E
1F03DE
3C00FE
78007E
70003E
F0003E
F0001E
E0001E
E0001E
E0001E
E0001E
E0001E
E0001E
F0001E
F0003E
78007E
3C00FE
3E01DE
1FFF9E
07FF1E
01FC1E
ENDCHAR
STARTCHAR 0065
ENCODING 101
SWIDTH 585 0
DWIDTH 26 0
BBX 22 23 2 0
BITMAP
00FE00
03FF80
07FFC0
1F01E0
1E00F0
3C0078
380038
78003C
70003C
70001C
FFFFFC
FFFFFC
FFFFFC
700000
700000
780000
780000
3C0010
1E0078
1F80F8
07FFF0
03FFC0
00FE00
ENDCHAR
STARTCHAR 0066
ENCODING 102
SWIDTH 360 0
DWIDTH 16 0
BBX 14 32 2 1
BITMAP
03FC
07FC
0FDC
0F00
1E00
1E00
1E00
1C00
1C00
FFFC
FFFC
FFFC
1E00
1E00
1E00
1E00
1E00
1E00
1E00
1E00
1E00
1E00
1E00
1E00
1E00
1E00
1E00
1E00
1E00
1E00
1E00
1E00
ENDCHAR
STARTCHAR 0067
ENCODING 103
SWIDTH 675 0
DWIDTH 30 0
BBX 24 30 2 -8
BITMAP
00FE0F
03FF8F
0FFFEF
1F00FF
3E003F
3C001F
78001F
70000F
70000F
70000F
F0000F
70000F
70000F
78000F
78001F
3C003F
3E007F
1F80EF
0FFFCF
07FF8F
01FE0F
00000F
00000E
00001E
00001E
38003C
3E00F8
3FFFF0
0FFFE0
01FF80
ENDCHAR
STARTCHAR 0068
ENCODING 104
SWIDTH 607 0
DWIDTH 27 0
BBX 20 32 4 1
BITMAP
E00000
E00000
E00000
E00000
E00000
E00000
E00000
E00000
E00000
E0FC00
E3FF00
E7FFC0
EF07C0
FC03E0
F801E0
F000F0
F000F0
E000F0
E000F0
E000F0
E000F0
E000F0
E000F0
E000F0
E000F0
E000F0
E000F0
E000F0
E000F0
E000F0
E000F0
E000F0
ENDCHAR
STARTCHAR 0069
ENCODING 105
SWIDTH 270 0
DWIDTH 12 0
BBX 4 32 4 0
BITMAP
F0
F0
F0
F0
00
00
00
00
00
F0
F0
F0
F0
F0
F0
F0
F0
F0
F0
F0
F0
F0
F0
F0
F0
F0
F0
F0
F0
F0
F0
F0
ENDCHAR
STARTCHAR 006A
ENCODING 106
SWIDTH 270 0
DWIDTH 12 0
BBX 8 39 0 -8
BITMAP
0F
0F
0F
0F
00
00
00
00
00
0F
0F
0F
0F
0F
0F
0F
0F
0F
0F
0F
0F
0F
0F
0F
0F
0F
0F
0F
0F
0F
0F
0F
0F
0F
0E
0E
FE
FC
F8
ENDCHAR
STARTCHAR 006B
ENCODING 107
SWIDTH 562 0
DWIDTH 25 0
BBX 20 32 4 1
BITMAP
E00000
E00000
E00000
E00000
E00000
E00000
E00000
E00000
E00000
E001E0
E003C0
E00780
E00F80
E01F00
E03E00
E07C00
E0F800
E0F000
E1E000
E3E000
E7F000
EFF000
FE7800
FC3C00
F83E00
F01E00
E00F00
E00780
E007C0
E003C0
E001E0
E000F0
ENDCHAR
STARTCHAR 006C
ENCODING 108
SWIDTH 270 0
DWIDTH 12 0
BBX 4 32 4 1
BITMAP
F0
F0
F0
F0
F0
F0
F0
F0
F0
F0
F0
F0
F0
F0
F0
F0
F0
F0
F0
F0
F0
F0
F0
F0
F0
F0
F0
F0
F0
F0
F0
F0
ENDCHAR
STARTCHAR 006D
ENCODING 109
SWIDTH 945 0
DWIDTH 42 0
BBX 35 23 4 0
BITMAP
E0FC01F800
E3FF07FE00
EFFF9FFF00
EC07DC0780
F803F803C0
F001F003C0
F001F001C0
F001E001E0
E001E001E0
E000E001E0
E000E001E0
E000E001E0
E000E001E0
E000E001E0
E000E001E0
E000E001E0
E000E001E0
E000E001E0
E000E001E0
E000E001E0
E000E001E0
E000E001E0
E000E001E0
ENDCHAR
STARTCHAR 006E
ENCODING 110
SWIDTH 607 0
DWIDTH 27 0
BBX 20 23 4 0
BITMAP
E0FC00
E3FF00
E7FFC0
EE03C0
F801E0
F800E0
F000F0
F000F0
E000F0
E000F0
E000F0
E000F0
E000F0
E000F0
E000F0
E000F0
E000F0
E000F0
E000F0
E000F0
E000F0
E000F0
E000F0
ENDCHAR
STARTCHAR 006F
ENCODING 111
SWIDTH 652 0
DWIDTH 29 0
BBX 24 23 2 0
BITMAP
007F00
01FFC0
07FFF0
0F81F8
1E007C
3C003E
38001E
78000F
70000F
700007
F00007
F00007
F00007
700007
70000F
78000F
3C001E
3C001E
1F007C
0FC0F8
07FFF0
03FFC0
007F00
ENDCHAR
STARTCHAR 0070
ENCODING 112
SWIDTH 675 0
DWIDTH 30 0
BBX 23 30 4 -7
BITMAP
E07E00
E1FFC0
E7FFE0
EF01F0
FC0078
F8003C
F0003C
F0001C
F0001E
E0001E
E0001E
E0001E
E0001E
E0001E
F0001E
F0001C
F8003C
FC007C
FE00F8
EF83F0
E7FFE0
E1FF80
E07E00
E00000
E00000
E00000
E00000
E00000
E00000
E00000
ENDCHAR
STARTCHAR 0071
ENCODING 113
SWIDTH 675 0
DWIDTH 30 0
BBX 24 30 2 -7
BITMAP
00FE0F
03FF8F
07FFEF
1F00FF
1E007F
3C003F
78001F
78000F
70000F
70000F
70000F
F0000F
70000F
70000F
78000F
78001F
3C001F
3C003F
1F007F
0FC1EF
07FFCF
03FF8F
00FC0F
00000F
00000F
00000F
00000F
00000F
00000F
00000F
ENDCHAR
STARTCHAR 0072
ENCODING 114
SWIDTH 405 0
DWIDTH 18 0
BBX 13 23 4 0
BITMAP
E038
E1F8
E3F8
E7C0
EF00
EC00
F800
F800
F000
F000
F000
E000
E000
E000
E000
E000
E000
E000
E000
E000
E000
E000
E000
ENDCHAR
STARTCHAR 0073
ENCODING 115
SWIDTH 495 0
DWIDTH 22 0
BBX 18 23 2 0
BITMAP
03F800
0FFE00
1FFF80
3C0F00
780100
700000
700000
780000
7C0000
3F8000
1FF000
07FE00
00FF00
001F80
000780
0003C0
0003C0
0003C0
700380
FC0780
7FFF00
1FFE00
03F800
ENDCHAR
STARTCHAR 0074
ENCODING 116
SWIDTH 405 0
DWIDTH 18 0
BBX 14 30 2 0
BITMAP
1C00
1C00
1C00
1C00
1C00
1C00
1C00
FFFC
FFFC
FFFC
1C00
1C00
1C00
1C00
1C00
1C00
1C00
1C00
1C00
1C00
1C00
1C00
1C00
1C00
1E00
1E00
0F04
0FFC
07FC
01F0
ENDCHAR
STARTCHAR 0075
ENCODING 117
SWIDTH 607 0
DWIDTH 27 0
BBX 21 23 3 0
BITMAP
F00078
F00078
F00078
F00078
F00078
F00078
F00078
F00078
F00078
F00078
F00078
F00078
F00078
F00078
F00078
700078
7000F8
7800F8
7C01F8
3E03F8
1FFF78
0FFE78
03F078
ENDCHAR
STARTCHAR 0076
ENCODING 118
SWIDTH 585 0
DWIDTH 26 0
BBX 22 23 2 0
BITMAP
F0001C
F0003C
700038
780078
780078
3C0070
3C00F0
1C00E0
1E01E0
0E01C0
0F01C0
0703C0
070380
078780
038700
03CF00
01CE00
01EE00
00FC00
00FC00
00FC00
007800
007800
ENDCHAR
STARTCHAR 0077
ENCODING 119
SWIDTH 855 0
DWIDTH 38 0
BBX 34 23 2 0
BITMAP
F000E001C0
F001E003C0
7001E003C0
7801F00380
7803F00780
3803F00700
3C03B80700
3C07380F00
1C07380E00
1E071C0E00
0E0E1C1E00
0E0E1E1C00
0F0E0E1C00
071C0E3C00
071C0F3800
07BC073800
03B8077800
03B807F000
03F003F000
01F003F000
01F003E000
01E001E000
00E001C000
ENDCHAR
STARTCHAR 0078
ENCODING 120
SWIDTH 585 0
DWIDTH 26 0
BBX 21 23 2 0
BITMAP
F00078
7800F0
3C00E0
1E01E0
0E03C0
0F0780
078700
03CF00
01FE00
01FC00
00F800
007800
00FC00
01FC00
03DE00
078F00
070780
0F03C0
1E03C0
3C01E0
3800F0
780078
F00078
ENDCHAR
STARTCHAR 0079
ENCODING 121
SWIDTH 585 0
DWIDTH 26 0
BBX 22 30 2 -8
BITMAP
F0001C
F0003C
70003C
780038
380078
3C0070
3C0070
1E00F0
1E00E0
0E01E0
0F01C0
0701C0
0783C0
038380
03C780
01C700
01C700
01EF00
00EE00
00FE00
007C00
007C00
003C00
003800
007800
007000
00F000
7FE000
7FC000
7F8000
ENDCHAR
STARTCHAR 007A
ENCODING 122
SWIDTH 562 0
DWIDTH 25 0
BBX 20 23 2 0
BITMAP
7FFFF0
7FFFF0
7FFFF0
0001E0
0003C0
0003C0
000780
000F00
001E00
003C00
007800
00F000
00F000
01E000
03C000
078000
0F0000
1E0000
3C0000
3C0000
7FFFF0
FFFFF0
FFFFF0
ENDCHAR
STARTCHAR 007B
ENCODING 123
SWIDTH 472 0
DWIDTH 21 0
BBX 17 38 2 -7
BITMAP
000180
000F80
003F80
007C00
00F000
01E000
01C000
01C000
01C000
01C000
01C000
01C000
01C000
01C000
01C000
03C000
038000
0F8000
FE0000
FC0000
FF0000
078000
03C000
01C000
01C000
01C000
01C000
01C000
01C000
01C000
01C000
01C000
01E000
00E000
00F800
007E00
001F80
000780
ENDCHAR
STARTCHAR 007C
ENCODING 124
SWIDTH 292 0
DWIDTH 13 0
BBX 3 42 5 -6
BITMAP
E0
E0
E0
E0
E0
E0
E0
E0
E0
E0
E0
E0
E0
E0
E0
E0
E0
E0
E0
E0
E0
E0
E0
E0
E0
E0
E0
E0
E0
E0
E0
E0
E0
E0
E0
E0
E0
E0
E0
E0
E0
E0
ENDCHAR
STARTCHAR 007D
ENCODING 125
SWIDTH 472 0
DWIDTH 21 0
BBX 16 38 3 -7
BITMAP
C000
F800
FE00
1F00
0F80
0780
0380
03C0
03C0
03C0
03C0
03C0
03C0
03C0
03C0
01C0
01E0
00F0
007F
003F
00FF
01E0
01C0
01C0
03C0
03C0
03C0
03C0
03C0
03C0
03C0
0380
0380
0780
0F00
7E00
FC00
E000
ENDCHAR
STARTCHAR 007E
ENCODING 126
SWIDTH 472 0
DWIDTH 21 0
BBX 15 5 3 11
BITMAP
1C0E
3F8C
7FFC
73FC
E0F8
ENDCHAR
STARTCHAR 00A0
ENCODING 160
SWIDTH 292 0
DWIDTH 13 0
BBX 0 0 0 0
BITMAP
ENDCHAR
STARTCHAR 00A1
ENCODING 161
SWIDTH 270 0
DWIDTH 12 0
BBX 4 31 4 1
BITMAP
F0
F0
F0
F0
F0
00
00
00
00
60
60
60
60
60
60
60
60
60
70
70
F0
F0
F0
F0
F0
F0
F0
F0
F0
F0
F0
ENDCHAR
STARTCHAR 00A2
ENCODING 162
SWIDTH 585 0
DWIDTH 26 0
BBX 21 31 3 1
BITMAP
000E00
000E00
000E00
001E00
03FF80
07FFC0
1FFFF0
3E1CF8
3C1C70
781820
701800
F03800
E03800
E03800
E03000
E03000
E07000
E07000
F07000
F06000
786000
7C6030
3EE0F8
1FE3F0
0FFFE0
03FF80
01FE00
01C000
01C000
01C000
018000
ENDCHAR
STARTCHAR 00A3
ENCODING 163
SWIDTH 652 0
DWIDTH 29 0
BBX 23 31 3 1
BITMAP
003FC0
00FFF0
01FFF8
03E0FC
07803E
07801C
0F0008
0F0000
0E0000
0E0000
0E0000
0E0000
0E0000
0E0000
0E0000
FFFFF0
FFFFF0
FFFFF0
0E0000
0E0000
0E0000
0E0000
0E0000
0E0000
0E0000
0E0000
0E0000
0E0000
3FFFFE
FFFFFE
FFFFFE
ENDCHAR
STARTCHAR 00A4
ENCODING 164
SWIDTH 720 0
DWIDTH 32 0
BBX 27 31 2 1
BITMAP
0007F800
001FFE00
003FFF80
007C0FC0
00F003E0
01E001E0
03C000E0
03C00000
07800000
07800000
FFFFF000
FFFFF000
FFFFF000
0F000000
0F000000
0F000000
0F000000
0F000000
FFFFF000
FFFFF000
07000000
07800000
07800000
03C00040
03C000E0
01E001E0
00F803C0
00FE0F80
003FFF00
001FFE00
0003F000
ENDCHAR
STARTCHAR 00A5
ENCODING 165
SWIDTH 675 0
DWIDTH 30 0
BBX 27 31 2 1
BITMAP
F00001E0
F00003C0
78000380
3C000780
3C000F00
1E000E00
0F001E00
0F003C00
07803800
03C07800
03C0F000
01E0E000
00F1E000
00F3C000
007B8000
003F8000
3FFFFF00
3FFFFF00
3FFFFF00
000E0000
000E0000
000E0000
000E0000
3FFFFF00
3FFFFF00
3FFFFF00
000E0000
000E0000
000E0000
000E0000
000E0000
ENDCHAR
STARTCHAR 00A7
ENCODING 167
SWIDTH 630 0
DWIDTH 28 0
BBX 22 31 3 1
BITMAP
01FE00
07FF80
1FFFE0
1E03F0
3C00F0
3C0020
3C0000
1E0000
1F8000
07F800
0FFF80
3FFFE0
7007F8
E000FC
E0003C
E0001C
F0001C
7C001C
3F8078
1FFFF0
03FFC0
003FC0
0007E0
0001E0
0000F0
1800F0
3C00F0
3F01E0
1FFFE0
07FF80
00FE00
ENDCHAR
STARTCHAR 00A8
ENCODING 168
SWIDTH 495 0
DWIDTH 22 0
BBX 12 5 5 26
BITMAP
F0F0
F0F0
F0F0
F0F0
F0F0
ENDCHAR
STARTCHAR 00A9
ENCODING 169
SWIDTH 832 0
DWIDTH 37 0
BBX 33 31 2 1
BITMAP
000FF80000
00781F0000
00C001C000
0300006000
0600003000
0C00001800
1800000C00
1003F00400
300FFC0600
201E1E0200
6038040300
4070000100
4060000100
4060000100
C0E0000180
C0E0000180
C0E0000180
4060000100
4070000100
4038040300
603C0E0300
201FFC0200
3007F80600
1000000400
1800000800
0C00001800
0600003000
038000E000
00E0038000
007E3E0000
000FF00000
ENDCHAR
STARTCHAR 00AA
ENCODING 170
SWIDTH 382 0
DWIDTH 17 0
BBX 11 18 3 13
BITMAP
3F80
7FC0
40C0
00E0
0060
3FE0
7BE0
E060
C060
C0E0
E1E0
7F60
3E60
0000
0000
0000
FFE0
FFE0
ENDCHAR
STARTCHAR 00AB
ENCODING 171
SWIDTH 540 0
DWIDTH 24 0
BBX 20 19 2 2
BITMAP
018040
03C0F0
0781E0
0703C0
0F0380
1E0780
3C0F00
381E00
781E00
F03C00
781E00
381E00
3C0F00
1E0780
0F03C0
0703C0
0781E0
03C0F0
010040
ENDCHAR
STARTCHAR 00AE
ENCODING 174
SWIDTH 832 0
DWIDTH 37 0
BBX 33 31 2 1
BITMAP
000FF80000
00781F0000
00C001C000
0300006000
0600003000
0C00001800
1800000C00
103FF80400
303FFC0600
20381E0200
6038070300
4038070100
4038070100
4038060100
C0381E0180
C03FFC0180
C03FF00180
4038700100
4038380100
40381C0300
60380E0300
20380E0200
3038070600
1000000400
1800000800
0C00001800
0600003000
038000E000
00E0038000
007E3E0000
000FF00000
ENDCHAR
STARTCHAR 00AF
ENCODING 175
SWIDTH 495 0
DWIDTH 22 0
BBX 14 3 4 26
BITMAP
FFFC
FFFC
FFFC
ENDCHAR
STARTCHAR 00B0
ENCODING 176
SWIDTH 450 0
DWIDTH 20 0
BBX 14 13 3 18
BITMAP
0FC0
1FF0
3CF8
7038
601C
E01C
E00C
E00C
E01C
7018
7838
3FF0
0FE0
ENDCHAR
STARTCHAR 00B1
ENCODING 177
SWIDTH 607 0
DWIDTH 27 0
BBX 22 31 2 1
BITMAP
01FE00
07FFC0
1FFFE0
3F03F0
7C00F8
780078
300038
000038
000038
000038
000078
000078
0000F0
0007E0
01FF80
01FF80
01FFE0
0001F0
000078
00003C
00003C
00001C
00001C
20001C
70003C
F8003C
7C0078
3F83F0
1FFFE0
07FFC0
00FE00
ENDCHAR
STARTCHAR 00B4
ENCODING 180
SWIDTH 495 0
DWIDTH 22 0
BBX 7 7 8 26
BITMAP
08
1E
1E
3C
78
70
E0
ENDCHAR
STARTCHAR 00B5
ENCODING 181
SWIDTH 855 0
DWIDTH 38 0
BBX 34 35 3 -3
BITMAP
001FF80000
007FFE0000
01FFFF8000
03F01FC000
07C003E000
0F0001F000
1E0000F800
3C00007C00
3C00003C00
7800001E00
7800001E00
7000000E00
F000000F00
F000000F00
F000000F00
F000000F00
F000000F00
F000000F00
F000000E00
7000000E00
7800001E00
7800001E00
3C00003C00
3E00007800
1F0000F800
0F8001F000
07C003E000
03F81FC000
01FFFFE000
007FFFF000
000FF0F800
0000007C00
0000003E00
0000001F00
0000000FC0
ENDCHAR
STARTCHAR 00B6
ENCODING 182
SWIDTH 517 0
DWIDTH 23 0
BBX 17 31 2 1
BITMAP
01FF80
07FF80
1FFF80
3FFF80
3FFF80
7FFF80
7FFF80
FFFF80
FFFF80
FFFF80
FFFF80
FFFF80
7FFF80
7FFF80
3FFF80
3FFF80
1FFF80
07FF80
01FF80
000780
000780
000780
000780
000780
000780
000780
000780
000780
000780
000780
000780
ENDCHAR
STARTCHAR 00B7
ENCODING 183
SWIDTH 247 0
DWIDTH 11 0
BBX 5 5 3 11
BITMAP
F8
F8
F8
F8
F8
ENDCHAR
STARTCHAR 00B8
ENCODING 184
SWIDTH 495 0
DWIDTH 22 0
BBX 6 7 7 -6
BITMAP
1C
38
38
78
F0
F0
20
ENDCHAR
STARTCHAR 00BA
ENCODING 186
SWIDTH 382 0
DWIDTH 17 0
BBX 13 18 2 13
BITMAP
0FC0
3FE0
38F0
7038
6038
E018
E018
E018
E038
7038
7870
3FE0
0F80
0000
0000
0000
FFF8
FFF8
ENDCHAR
STARTCHAR 00BB
ENCODING 187
SWIDTH 540 0
DWIDTH 24 0
BBX 19 19 3 2
BITMAP
601800
F03800
F03C00
781E00
3C0F00
1E0700
1E0780
0F03C0
0781E0
0381E0
0781E0
0F03C0
1E0780
1C0700
3C0F00
781E00
703C00
E03800
601800
ENDCHAR
STARTCHAR 00BF
ENCODING 191
SWIDTH 540 0
DWIDTH 24 0
BBX 20 31 2 1
BITMAP
007800
007800
007800
007800
000000
000000
000000
000000
000000
003000
003000
003000
007000
00F800
07F800
0FF800
3F0000
3C0000
780000
700000
F00000
F00000
F00000
F00000
F00020
7800F0
7C01F0
3F07E0
1FFFC0
0FFF00
01FC00
ENDCHAR
STARTCHAR 00C0
ENCODING 192
SWIDTH 787 0
DWIDTH 35 0
BBX 31 40 2 1
BITMAP
00180000
007C0000
003C0000
001E0000
000F0000
00070000
00000000
00000000
00000000
0003C000
0007C000
0007C000
000FE000
000EE000
001EF000
001C7000
003C7800
00383800
00383C00
00783C00
00701E00
00F01E00
00E00E00
01E00F00
01C00700
03C00780
03800380
078003C0
070003C0
07FFFFE0
0FFFFFE0
0FFFFFF0
1E0000F0
1C000070
3C000078
38000038
7800003C
7000003C
F000001E
F000001E
ENDCHAR
STARTCHAR 00C1
ENCODING 193
SWIDTH 787 0
DWIDTH 35 0
BBX 31 40 2 1
BITMAP
00003000
00007C00
00007800
0000F000
0001E000
0001C000
00000000
00000000
00000000
0003C000
0007C000
0007C000
000FE000
000EE000
001EF000
001C7000
003C7800
00383800
00383C00
00783C00
00701E00
00F01E00
00E00E00
01E00F00
01C00700
03C00780
03800380
078003C0
070003C0
07FFFFE0
0FFFFFE0
0FFFFFF0
1E0000F0
1C000070
3C000078
38000038
7800003C
7000003C
F000001E
F000001E
ENDCHAR
STARTCHAR 00C2
ENCODING 194
SWIDTH 787 0
DWIDTH 35 0
BBX 31 39 2 1
BITMAP
0007C000
0007E000
000FE000
001C7000
00383800
00000000
00000000
00000000
0003C000
0007C000
0007C000
000FE000
000EE000
001EF000
001C7000
003C7800
00383800
00383C00
00783C00
00701E00
00F01E00
00E00E00
01E00F00
01C00700
03C00780
03800380
078003C0
070003C0
07FFFFE0
0FFFFFE0
0FFFFFF0
1E0000F0
1C000070
3C000078
38000038
7800003C
7000003C
F000001E
F000001E
ENDCHAR
STARTCHAR 00C3
ENCODING 195
SWIDTH 787 0
DWIDTH 35 0
BBX 31 39 2 0
BITMAP
00000400
003F0E00
007FFC00
007FFC00
00E1F800
00400000
00000000
00000000
0003C000
0007C000
0007C000
000FE000
000EE000
001EF000
001C7000
003C7800
00383800
00383C00
00783C00
00701E00
00F01E00
00E00E00
01E00F00
01C00700
03C00780
03800380
078003C0
070003C0
07FFFFE0
0FFFFFE0
0FFFFFF0
1E0000F0
1C000070
3C000078
38000038
7800003C
7000003C
F000001E
F000001E
ENDCHAR
STARTCHAR 00C4
ENCODING 196
SWIDTH 787 0
DWIDTH 35 0
BBX 31 38 2 0
BITMAP
003C7800
003C7800
003C7800
003C7800
00000000
00000000
00000000
0003C000
0007C000
0007C000
000FE000
000EE000
001EF000
001C7000
003C7800
00383800
00383C00
00783C00
00701E00
00F01E00
00E00E00
01E00F00
01C00700
03C00780
03800380
078003C0
070003C0
07FFFFE0
0FFFFFE0
0FFFFFF0
1E0000F0
1C000070
3C000078
38000038
7800003C
7000003C
F000001E
F000001E
ENDCHAR
STARTCHAR 00C5
ENCODING 197
SWIDTH 787 0
DWIDTH 35 0
BBX 31 38 2 1
BITMAP
0007C000
000EE000
00183000
00183000
00183000
00183000
000C6000
0007C000
0007C000
0007C000
000FE000
000EE000
001EF000
001C7000
003C7800
00383800
00783C00
00783C00
00701E00
00F01E00
00E00E00
01E00F00
01C00700
03C00780
03800380
078003C0
070003C0
0FFFFFE0
0FFFFFE0
0FFFFFF0
1E0000F0
1C000070
3C000078
38000038
7800003C
7000003C
F000001E
F000001E
ENDCHAR
STARTCHAR 00C6
ENCODING 198
SWIDTH 1035 0
DWIDTH 46 0
BBX 43 31 1 1
BITMAP
00003FFFFFE0
00007FFFFFE0
0000FFFFFFE0
0000E7000000
0001E7000000
0001C7000000
0003C7000000
000387000000
000787000000
000F07000000
000E07000000
001E07000000
001C07000000
003C07000000
007807FFFF80
007007FFFF80
00F007FFFF80
00E007000000
01E007000000
03C007000000
03FFFF000000
07FFFF000000
07FFFF000000
0F0007000000
0E0007000000
1E0007000000
3C0007000000
380007000000
780007FFFFE0
700007FFFFE0
F00007FFFFE0
ENDCHAR
STARTCHAR 00C7
ENCODING 199
SWIDTH 742 0
DWIDTH 33 0
BBX 28 37 3 -6
BITMAP
001FF800
007FFE00
01FFFF80
03F01FE0
0FC003F0
0F0001E0
1E000040
3C000000
3C000000
78000000
78000000
70000000
F0000000
F0000000
F0000000
F0000000
F0000000
F0000000
F0000000
70000000
78000000
78000000
3C000000
3C000000
1E000060
1F0000F0
0FC003E0
07F00FC0
01FFFF80
007FFE00
001FF000
00070000
000F0000
000E0000
001E0000
003C0000
000C0000
ENDCHAR
STARTCHAR 00C8
ENCODING 200
SWIDTH 675 0
DWIDTH 30 0
BBX 23 40 4 1
BITMAP
00C000
03E000
01F000
00F000
007800
003800
000000
000000
000000
FFFFFE
FFFFFE
FFFFFE
F00000
F00000
F00000
F00000
F00000
F00000
F00000
F00000
F00000
F00000
F00000
FFFFF8
FFFFF8
FFFFF8
F00000
F00000
F00000
F00000
F00000
F00000
F00000
F00000
F00000
F00000
F00000
FFFFFE
FFFFFE
FFFFFE
ENDCHAR
STARTCHAR 00C9
ENCODING 201
SWIDTH 675 0
DWIDTH 30 0
BBX 23 40 4 1
BITMAP
000600
000F80
000F00
001E00
003C00
003800
000000
000000
000000
FFFFFE
FFFFFE
FFFFFE
F00000
F00000
F00000
F00000
F00000
F00000
F00000
F00000
F00000
F00000
F00000
FFFFF8
FFFFF8
FFFFF8
F00000
F00000
F00000
F00000
F00000
F00000
F00000
F00000
F00000
F00000
F00000
FFFFFE
FFFFFE
FFFFFE
ENDCHAR
STARTCHAR 00CA
ENCODING 202
SWIDTH 675 0
DWIDTH 30 0
BBX 23 40 4 0
BITMAP
003800
007C00
00FE00
01EF00
01C700
038380
000000
000000
000000
FFFFFE
FFFFFE
FFFFFE
F00000
F00000
F00000
F00000
F00000
F00000
F00000
F00000
F00000
F00000
F00000
FFFFF8
FFFFF8
FFFFF8
F00000
F00000
F00000
F00000
F00000
F00000
F00000
F00000
F00000
F00000
F00000
FFFFFE
FFFFFE
FFFFFE
ENDCHAR
STARTCHAR 00CB
ENCODING 203
SWIDTH 675 0
DWIDTH 30 0
BBX 23 38 4 1
BITMAP
03C780
03C780
03C780
03C780
000000
000000
000000
FFFFFE
FFFFFE
FFFFFE
F00000
F00000
F00000
F00000
F00000
F00000
F00000
F00000
F00000
F00000
F00000
FFFFF8
FFFFF8
FFFFF8
F00000
F00000
F00000
F00000
F00000
F00000
F00000
F00000
F00000
F00000
F00000
FFFFFE
FFFFFE
FFFFFE
ENDCHAR
STARTCHAR 00CC
ENCODING 204
SWIDTH 292 0
DWIDTH 13 0
BBX 8 40 0 1
BITMAP
30
F8
7C
3C
1E
0E
00
00
00
07
07
07
07
07
07
07
07
07
07
07
07
07
07
07
07
07
07
07
07
07
07
07
07
07
07
07
07
07
07
07
ENDCHAR
STARTCHAR 00CD
ENCODING 205
SWIDTH 292 0
DWIDTH 13 0
BBX 8 40 5 1
BITMAP
0C
1F
3E
3C
78
E0
00
00
00
E0
E0
E0
E0
E0
E0
E0
E0
E0
E0
E0
E0
E0
E0
E0
E0
E0
E0
E0
E0
E0
E0
E0
E0
E0
E0
E0
E0
E0
E0
E0
ENDCHAR
STARTCHAR 00CE
ENCODING 206
SWIDTH 292 0
DWIDTH 13 0
BBX 11 40 1 0
BITMAP
0E00
1F00
3F80
7BC0
71C0
E0E0
0000
0000
0000
0E00
0E00
0E00
0E00
0E00
0E00
0E00
0E00
0E00
0E00
0E00
0E00
0E00
0E00
0E00
0E00
0E00
0E00
0E00
0E00
0E00
0E00
0E00
0E00
0E00
0E00
0E00
0E00
0E00
0E00
0E00
ENDCHAR
STARTCHAR 00CF
ENCODING 207
SWIDTH 292 0
DWIDTH 13 0
BBX 11 38 1 1
BITMAP
F1E0
F1E0
F1E0
F1E0
0000
0000
0000
0E00
0E00
0E00
0E00
0E00
0E00
0E00
0E00
0E00
0E00
0E00
0E00
0E00
0E00
0E00
0E00
0E00
0E00
0E00
0E00
0E00
0E00
0E00
0E00
0E00
0E00
0E00
0E00
0E00
0E00
0E00
ENDCHAR
STARTCHAR 00D0
ENCODING 208
SWIDTH 810 0
DWIDTH 36 0
BBX 31 31 2 1
BITMAP
0FFFF000
0FFFFC00
0FFFFF00
0E003FC0
0E0007E0
0E0003F0
0E0000F0
0E000078
0E00007C
0E00003C
0E00003C
0E00001E
0E00001E
0E00001E
FFFF801E
FFFF801E
FFFF801E
0E00001E
0E00001E
0E00001E
0E00003C
0E00003C
0E000078
0E000078
0E0000F0
0E0003E0
0E0007C0
0E007F80
0FFFFF00
0FFFFC00
0FFFE000
ENDCHAR
STARTCHAR 00D1
ENCODING 209
SWIDTH 787 0
DWIDTH 35 0
BBX 27 39 4 1
BITMAP
00703800
00FE3800
01FFF000
01DFF000
0383E000
00000000
00000000
00000000
F00001E0
F80001E0
FC0001E0
FE0001E0
FE0001E0
FF0001E0
F78001E0
F7C001E0
F3C001E0
F1E001E0
F0F001E0
F07801E0
F07C01E0
F03C01E0
F01E01E0
F00F01E0
F00F81E0
F007C1E0
F003C1E0
F001E1E0
F000F1E0
F000F9E0
F0007DE0
F0003DE0
F0001FE0
F0000FE0
F0000FE0
F00007E0
F00003E0
F00001E0
F00000E0
ENDCHAR
STARTCHAR 00D2
ENCODING 210
SWIDTH 855 0
DWIDTH 38 0
BBX 32 40 3 0
BITMAP
00080000
003C0000
003C0000
001E0000
000F0000
00070000
00038000
00000000
00000000
001FF800
007FFE00
01FFFF80
03F01FC0
07C003E0
0F0001F0
1E0000F8
3C00007C
3C00003C
7800001E
7800001E
7000000E
F000000F
F000000F
F000000F
F000000F
F000000F
F000000F
F000000E
7000000E
7800001E
7800001E
3C00003C
3E00007C
1F0000F8
0F8001F0
07C003E0
03F81FC0
01FFFF80
007FFE00
000FF000
ENDCHAR
STARTCHAR 00D3
ENCODING 211
SWIDTH 855 0
DWIDTH 38 0
BBX 32 40 3 0
BITMAP
00001000
00003C00
00007C00
00007800
0000F000
0001E000
0001C000
00000000
00000000
001FF800
007FFE00
01FFFF80
03F01FC0
07C003E0
0F0001F0
1E0000F8
3C00007C
3C00003C
7800001E
7800001E
7000000E
F000000F
F000000F
F000000F
F000000F
F000000F
F000000F
F000000E
7000000E
7800001E
7800001E
3C00003C
3E00007C
1F0000F8
0F8001F0
07C003E0
03F81FC0
01FFFF80
007FFE00
000FF000
ENDCHAR
STARTCHAR 00D4
ENCODING 212
SWIDTH 855 0
DWIDTH 38 0
BBX 32 39 3 1
BITMAP
0003C000
0007E000
000FF000
001E7000
001C3800
00381C00
00000000
00000000
001FF800
007FFE00
01FFFF80
03F01FC0
07C003E0
0F0001F0
1E0000F8
3C00007C
3C00003C
7800001E
7800001E
7000000E
F000000F
F000000F
F000000F
F000000F
F000000F
F000000F
F000000E
7000000E
7800001E
7800001E
3C00003C
3E00007C
1F0000F8
0F8001F0
07C003E0
03F81FC0
01FFFF80
007FFE00
000FF000
ENDCHAR
STARTCHAR 00D5
ENCODING 213
SWIDTH 855 0
DWIDTH 38 0
BBX 32 38 3 1
BITMAP
001F0600
003FDE00
007FFC00
0071FC00
00603000
00000000
00000000
001FF800
007FFE00
01FFFF80
03F01FC0
07C003E0
0F0001F0
1E0000F8
3C00007C
3C00003C
7800001E
7800001E
7000000E
F000000F
F000000F
F000000F
F000000F
F000000F
F000000F
F000000E
7000000E
7800001E
7800001E
3C00003C
3E00007C
1F0000F8
0F8001F0
07C003E0
03F81FC0
01FFFF80
007FFE00
000FF000
ENDCHAR
STARTCHAR 00D6
ENCODING 214
SWIDTH 855 0
DWIDTH 38 0
BBX 32 38 3 0
BITMAP
003C3C00
003C3C00
003C3C00
003C3C00
003C3C00
00000000
00000000
001FF800
007FFE00
01FFFF80
03F01FC0
07C003E0
0F0001F0
1E0000F8
3C00007C
3C00003C
7800001E
7800001E
7000000E
F000000F
F000000F
F000000F
F000000F
F000000F
F000000F
F000000E
7000000E
7800001E
7800001E
3C00003C
3E00007C
1F0000F8
0F8001F0
07C003E0
03F81FC0
01FFFF80
007FFE00
000FF000
ENDCHAR
STARTCHAR 00D8
ENCODING 216
SWIDTH 855 0
DWIDTH 38 0
BBX 32 31 3 1
BITMAP
001FF80F
007FFF1E
01FFFFBC
03E00FF8
078003F0
0F0001F0
1E0003F8
3C0007BC
3800073C
78000E1E
78001C1E
7000380E
F000700F
F000E00F
F001E00F
F003C00F
F007800F
F00F000F
F01E000E
703C000E
7878001E
78F0001C
3DE0003C
3DC00038
1F800078
1F0000F0
0FC003E0
1FF00FC0
3DFFFF80
787FFE00
F00FF000
ENDCHAR
STARTCHAR 00D9
ENCODING 217
SWIDTH 765 0
DWIDTH 34 0
BBX 26 40 4 1
BITMAP
00600000
01E00000
00F00000
00780000
00380000
001C0000
00000000
00000000
00000000
E00003C0
E00003C0
E00003C0
E00003C0
E00003C0
E00003C0
E00003C0
E00003C0
E00003C0
E00003C0
E00003C0
E00003C0
E00003C0
E00003C0
E00003C0
E00003C0
E00003C0
E00003C0
E00003C0
F00003C0
F00003C0
F0000380
70000380
78000780
7C000F00
3C000F00
1F003E00
1FC1FC00
07FFF800
03FFE000
007F8000
ENDCHAR
STARTCHAR 00DA
ENCODING 218
SWIDTH 765 0
DWIDTH 34 0
BBX 26 40 4 1
BITMAP
00018000
0003E000
0003C000
00078000
000F0000
000E0000
00000000
00000000
00000000
E00003C0
E00003C0
E00003C0
E00003C0
E00003C0
E00003C0
E00003C0
E00003C0
E00003C0
E00003C0
E00003C0
E00003C0
E00003C0
E00003C0
E00003C0
E00003C0
E00003C0
E00003C0
E00003C0
F00003C0
F00003C0
F0000380
70000380
78000780
7C000F00
3C000F00
1F003E00
1FC1FC00
07FFF800
03FFE000
007F8000
ENDCHAR
STARTCHAR 00DB
ENCODING 219
SWIDTH 765 0
DWIDTH 34 0
BBX 26 40 4 0
BITMAP
001C0000
003E0000
003F0000
007F8000
00E3C000
01C1C000
00000000
00000000
00000000
E00003C0
E00003C0
E00003C0
E00003C0
E00003C0
E00003C0
E00003C0
E00003C0
E00003C0
E00003C0
E00003C0
E00003C0
E00003C0
E00003C0
E00003C0
E00003C0
E00003C0
E00003C0
E00003C0
F00003C0
F00003C0
F0000380
70000380
78000780
7C000F00
3C000F00
1F003E00
1FC1FC00
07FFF800
03FFE000
007F8000
ENDCHAR
STARTCHAR 00DC
ENCODING 220
SWIDTH 765 0
DWIDTH 34 0
BBX 26 38 4 0
BITMAP
01E1E000
01E1E000
01E1E000
01E1E000
00000000
00000000
00000000
E00003C0
E00003C0
E00003C0
E00003C0
E00003C0
E00003C0
E00003C0
E00003C0
E00003C0
E00003C0
E00003C0
E00003C0
E00003C0
E00003C0
E00003C0
E00003C0
E00003C0
E00003C0
E00003C0
F00003C0
F00003C0
F0000380
70000380
78000780
7C000F00
3C000F00
1F003E00
1FC1FC00
07FFF800
03FFE000
007F8000
ENDCHAR
STARTCHAR 00DD
ENCODING 221
SWIDTH 720 0
DWIDTH 32 0
BBX 28 40 2 1
BITMAP
0000C000
0000F000
0001E000
0001C000
00038000
00070000
00000000
00000000
00000000
F00000F0
F80001E0
780001E0
3C0003C0
3E000780
1E000780
0F000F00
0F801E00
07801E00
03C03C00
03E07800
01E07800
00F0F000
0079E000
0079E000
003FC000
001F8000
001F0000
000F0000
000F0000
000F0000
000F0000
000F0000
000F0000
000F0000
000F0000
000F0000
000F0000
000F0000
000F0000
000F0000
ENDCHAR
STARTCHAR 00DE
ENCODING 222
SWIDTH 675 0
DWIDTH 30 0
BBX 24 31 4 1
BITMAP
F00000
F00000
F00000
F00000
F00000
FFFE00
FFFFC0
FFFFF0
F00FF8
F0007C
F0003E
F0001E
F0000E
F0000F
F0000F
F0000F
F0000F
F0000E
F0001E
F0001E
F0003C
F000F8
FFFFF0
FFFFE0
FFFF80
F00000
F00000
F00000
F00000
F00000
F00000
ENDCHAR
STARTCHAR 00DF
ENCODING 223
SWIDTH 630 0
DWIDTH 28 0
BBX 21 33 4 0
BITMAP
01F800
07FE00
1FFF80
3F0FC0
3C03C0
7801E0
7001E0
F001E0
E000E0
E001E0
E001E0
E001C0
E003C0
E00780
E00F00
E07E00
E07800
E07F00
E01FC0
E003E0
E000F0
E00070
E00078
E00078
E00078
E00078
E00078
E00070
E001F0
E003E0
E07FC0
E07F00
E07800
ENDCHAR
STARTCHAR 00E0
ENCODING 224
SWIDTH 585 0
DWIDTH 26 0
BBX 20 32 2 1
BITMAP
038000
07C000
03C000
01E000
00E000
007000
000000
000000
000000
03FC00
1FFF80
3FFFC0
1C07E0
1001E0
0000F0
000070
000070
000070
03FE70
1FFFF0
3FFFF0
7C0070
780070
F00070
F00070
F00070
F000F0
F001F0
7803F0
3E1F70
1FFE70
07F070
ENDCHAR
STARTCHAR 00E1
ENCODING 225
SWIDTH 585 0
DWIDTH 26 0
BBX 20 32 2 1
BITMAP
000700
000F00
001E00
001C00
003800
007000
000000
000000
000000
03FC00
1FFF80
3FFFC0
1C07E0
1001E0
0000F0
000070
000070
000070
03FE70
1FFFF0
3FFFF0
7C0070
780070
F00070
F00070
F00070
F000F0
F001F0
7803F0
3E1F70
1FFE70
07F070
ENDCHAR
STARTCHAR 00E2
ENCODING 226
SWIDTH 585 0
DWIDTH 26 0
BBX 20 32 2 0
BITMAP
007800
00FC00
01FC00
01CE00
038700
070380
000000
000000
000000
03FC00
1FFF80
3FFFC0
1C07E0
1001E0
0000F0
000070
000070
000070
03FE70
1FFFF0
3FFFF0
7C0070
780070
F00070
F00070
F00070
F000F0
F001F0
7803F0
3E1F70
1FFE70
07F070
ENDCHAR
STARTCHAR 00E3
ENCODING 227
SWIDTH 585 0
DWIDTH 26 0
BBX 20 31 2 1
BITMAP
03C0C0
07FBC0
0FFF80
0E3F80
0C0F00
000000
000000
000000
03FC00
1FFF80
3FFFC0
1C07E0
1001E0
0000F0
000070
000070
000070
03FE70
1FFFF0
3FFFF0
7C0070
780070
F00070
F00070
F00070
F000F0
F001F0
7803F0
3E1F70
1FFE70
07F070
ENDCHAR
STARTCHAR 00E4
ENCODING 228
SWIDTH 585 0
DWIDTH 26 0
BBX 20 30 2 1
BITMAP
078780
078780
078780
078780
000000
000000
000000
03FC00
1FFF80
3FFFC0
1C07E0
1001E0
0000F0
000070
000070
000070
03FE70
1FFFF0
3FFFF0
7C0070
780070
F00070
F00070
F00070
F000F0
F001F0
7803F0
3E1F70
1FFE70
07F070
ENDCHAR
STARTCHAR 00E5
ENCODING 229
SWIDTH 585 0
DWIDTH 26 0
BBX 20 35 2 0
BITMAP
007800
00FC00
018600
030600
030300
030200
018600
00FC00
007800
000000
000000
000000
03FC00
1FFF80
3FFFC0
1C07E0
1001E0
0000F0
000070
000070
000070
03FE70
1FFFF0
3FFFF0
7C0070
780070
F00070
F00070
F00070
F000F0
F001F0
7803F0
3E1F70
1FFE70
07F070
ENDCHAR
STARTCHAR 00E6
ENCODING 230
SWIDTH 945 0
DWIDTH 42 0
BBX 38 23 2 0
BITMAP
03FC00FE00
1FFF03FF80
3FFF87FFE0
1C07CF01F0
0001FE00F0
0000FC0078
0000F80038
0000F8003C
000070003C
07FF70001C
1FFFFFFFFC
3F07FFFFFC
78007FFFFC
7000700000
F000700000
F000780000
F000780000
F000FC0010
7801FE0038
7C07CF80F8
3FFF07FFF0
1FFE03FFC0
07F0007E00
ENDCHAR
STARTCHAR 00E7
ENCODING 231
SWIDTH 562 0
DWIDTH 25 0
BBX 21 29 2 -7
BITMAP
007F00
03FFC0
07FFF0
0F81F8
1E0078
3C0030
380000
780000
700000
700000
F00000
F00000
F00000
700000
700000
780000
780000
3C0010
1E0038
0F80F8
07FFF0
03FFC0
00FF00
003800
007000
00F000
00E000
01E000
00C000
ENDCHAR
STARTCHAR 00E8
ENCODING 232
SWIDTH 585 0
DWIDTH 26 0
BBX 22 32 2 1
BITMAP
018000
07C000
01E000
00E000
007000
003800
000000
000000
000000
00FE00
03FF80
07FFC0
1F01E0
1E00F0
3C0078
380038
78003C
70003C
70001C
FFFFFC
FFFFFC
FFFFFC
700000
700000
780000
780000
3C0010
1E0078
1F80F8
07FFF0
03FFC0
00FE00
ENDCHAR
STARTCHAR 00E9
ENCODING 233
SWIDTH 585 0
DWIDTH 26 0
BBX 22 32 2 1
BITMAP
000600
000F80
000F00
001E00
003C00
003800
000000
000000
000000
00FE00
03FF80
07FFC0
1F01E0
1E00F0
3C0078
380038
78003C
70003C
70001C
FFFFFC
FFFFFC
FFFFFC
700000
700000
780000
780000
3C0010
1E0078
1F80F8
07FFF0
03FFC0
00FE00
ENDCHAR
STARTCHAR 00EA
ENCODING 234
SWIDTH 585 0
DWIDTH 26 0
BBX 22 32 2 0
BITMAP
003800
007C00
00FE00
01EE00
03C700
078380
000000
000000
000000
00FE00
03FF80
07FFC0
1F01E0
1E00F0
3C0078
380038
78003C
70003C
70001C
FFFFFC
FFFFFC
FFFFFC
700000
700000
780000
780000
3C0010
1E0078
1F80F8
07FFF0
03FFC0
00FE00
ENDCHAR
STARTCHAR 00EB
ENCODING 235
SWIDTH 585 0
DWIDTH 26 0
BBX 22 30 2 1
BITMAP
078780
078780
078780
078780
000000
000000
000000
00FE00
03FF80
07FFC0
1F01E0
1E00F0
3C0078
380038
78003C
70003C
70001C
FFFFFC
FFFFFC
FFFFFC
700000
700000
780000
780000
3C0010
1E0078
1F80F8
07FFF0
03FFC0
00FE00
ENDCHAR
STARTCHAR 00EC
ENCODING 236
SWIDTH 270 0
DWIDTH 12 0
BBX 8 33 0 0
BITMAP
20
F0
F8
78
3C
1E
0E
00
00
00
0F
0F
0F
0F
0F
0F
0F
0F
0F
0F
0F
0F
0F
0F
0F
0F
0F
0F
0F
0F
0F
0F
0F
ENDCHAR
STARTCHAR 00ED
ENCODING 237
SWIDTH 270 0
DWIDTH 12 0
BBX 8 33 4 0
BITMAP
0C
0F
1E
3C
38
70
E0
00
00
00
F0
F0
F0
F0
F0
F0
F0
F0
F0
F0
F0
F0
F0
F0
F0
F0
F0
F0
F0
F0
F0
F0
F0
ENDCHAR
STARTCHAR 00EE
ENCODING 238
SWIDTH 270 0
DWIDTH 12 0
BBX 12 32 0 1
BITMAP
0F00
1F80
3FC0
79C0
F0E0
E070
0000
0000
0000
0F00
0F00
0F00
0F00
0F00
0F00
0F00
0F00
0F00
0F00
0F00
0F00
0F00
0F00
0F00
0F00
0F00
0F00
0F00
0F00
0F00
0F00
0F00
ENDCHAR
STARTCHAR 00EF
ENCODING 239
SWIDTH 270 0
DWIDTH 12 0
BBX 12 31 0 0
BITMAP
F0F0
F0F0
F0F0
F0F0
F0F0
0000
0000
0000
0F00
0F00
0F00
0F00
0F00
0F00
0F00
0F00
0F00
0F00
0F00
0F00
0F00
0F00
0F00
0F00
0F00
0F00
0F00
0F00
0F00
0F00
0F00
ENDCHAR
STARTCHAR 00F0
ENCODING 240
SWIDTH 630 0
DWIDTH 28 0
BBX 24 33 2 0
BITMAP
000020
0079E0
003FE0
001F80
007E00
01FF00
07C780
0303C0
0003C0
0001E0
0000F0
007C70
03FF78
0FFFFC
1F01FC
3E007E
3C003E
78001E
78001E
70000F
F0000F
F0000F
F0000F
70000F
70000E
78001E
78001E
3C003C
1E0078
0F81F0
07FFE0
03FFC0
007E00
ENDCHAR
STARTCHAR 00F1
ENCODING 241
SWIDTH 607 0
DWIDTH 27 0
BBX 20 31 4 1
BITMAP
078180
0FF380
1FFF00
1C7F00
181E00
000000
000000
000000
E0FC00
E3FF00
E7FFC0
EE03C0
F801E0
F800E0
F000F0
F000F0
E000F0
E000F0
E000F0
E000F0
E000F0
E000F0
E000F0
E000F0
E000F0
E000F0
E000F0
E000F0
E000F0
E000F0
E000F0
ENDCHAR
STARTCHAR 00F2
ENCODING 242
SWIDTH 652 0
DWIDTH 29 0
BBX 24 32 2 1
BITMAP
00C000
03E000
01E000
00F000
007800
003800
000000
000000
000000
007F00
01FFC0
07FFF0
0F81F8
1E007C
3C003E
38001E
78000F
70000F
700007
F00007
F00007
F00007
700007
70000F
78000F
3C001E
3C001E
1F007C
0FC0F8
07FFF0
03FFC0
007F00
ENDCHAR
STARTCHAR 00F3
ENCODING 243
SWIDTH 652 0
DWIDTH 29 0
BBX 24 32 2 1
BITMAP
000180
0003E0
000780
000700
000E00
001C00
000000
000000
000000
007F00
01FFC0
07FFF0
0F81F8
1E007C
3C003E
38001E
78000F
70000F
700007
F00007
F00007
F00007
700007
70000F
78000F
3C001E
3C001E
1F007C
0FC0F8
07FFF0
03FFC0
007F00
ENDCHAR
STARTCHAR 00F4
ENCODING 244
SWIDTH 652 0
DWIDTH 29 0
BBX 24 32 2 0
BITMAP
001C00
003E00
007F00
00F780
01E380
01C1C0
000000
000000
000000
007F00
01FFC0
07FFF0
0F81F8
1E007C
3C003E
38001E
78000F
70000F
700007
F00007
F00007
F00007
700007
70000F
78000F
3C001E
3C001E
1F007C
0FC0F8
07FFF0
03FFC0
007F00
ENDCHAR
STARTCHAR 00F5
ENCODING 245
SWIDTH 652 0
DWIDTH 29 0
BBX 24 31 2 1
BITMAP
01F070
03FCE0
03FFE0
071FC0
070780
000000
000000
000000
007F00
01FFC0
07FFF0
0F81F8
1E007C
3C003E
38001E
78000F
70000F
700007
F00007
F00007
F00007
700007
70000F
78000F
3C001E
3C001E
1F007C
0FC0F8
07FFF0
03FFC0
007F00
ENDCHAR
STARTCHAR 00F6
ENCODING 246
SWIDTH 652 0
DWIDTH 29 0
BBX 24 30 2 1
BITMAP
03C3C0
03C3C0
03C3C0
03C3C0
000000
000000
000000
007F00
01FFC0
07FFF0
0F81F8
1E007C
3C003E
38001E
78000F
70000F
700007
F00007
F00007
F00007
700007
70000F
78000F
3C001E
3C001E
1F007C
0FC0F8
07FFF0
03FFC0
007F00
ENDCHAR
STARTCHAR 00F8
ENCODING 248
SWIDTH 652 0
DWIDTH 29 0
BBX 25 23 2 0
BITMAP
007F0780
01FFEF00
07FFFE00
0F80FC00
1E007C00
3C007E00
3800FE00
7801CF00
70038F00
70070700
F00E0700
F01C0700
F0380700
70700700
70E00F00
79C00F00
7B800E00
3F001E00
1E003C00
1F80F800
3FFFF000
7BFFC000
F07F0000
ENDCHAR
STARTCHAR 00F9
ENCODING 249
SWIDTH 607 0
DWIDTH 27 0
BBX 21 32 3 1
BITMAP
038000
07C000
03C000
01E000
00F000
007000
000000
000000
000000
F00078
F00078
F00078
F00078
F00078
F00078
F00078
F00078
F00078
F00078
F00078
F00078
F00078
F00078
F00078
700078
7000F8
7800F8
7C01F8
3E03F8
1FFF78
0FFE78
03F078
ENDCHAR
STARTCHAR 00FA
ENCODING 250
SWIDTH 607 0
DWIDTH 27 0
BBX 21 33 3 0
BITMAP
000400
000F00
000F00
001E00
003C00
003800
007000
000000
000000
000000
F00078
F00078
F00078
F00078
F00078
F00078
F00078
F00078
F00078
F00078
F00078
F00078
F00078
F00078
F00078
700078
7000F8
7800F8
7C01F8
3E03F8
1FFF78
0FFE78
03F078
ENDCHAR
STARTCHAR 00FB
ENCODING 251
SWIDTH 607 0
DWIDTH 27 0
BBX 21 32 3 1
BITMAP
007800
00FC00
01FC00
03CE00
078700
060380
000000
000000
000000
F00078
F00078
F00078
F00078
F00078
F00078
F00078
F00078
F00078
F00078
F00078
F00078
F00078
F00078
F00078
700078
7000F8
7800F8
7C01F8
3E03F8
1FFF78
0FFE78
03F078
ENDCHAR
STARTCHAR 00FC
ENCODING 252
SWIDTH 607 0
DWIDTH 27 0
BBX 21 31 3 0
BITMAP
078780
078780
078780
078780
078780
000000
000000
000000
F00078
F00078
F00078
F00078
F00078
F00078
F00078
F00078
F00078
F00078
F00078
F00078
F00078
F00078
F00078
700078
7000F8
7800F8
7C01F8
3E03F8
1FFF78
0FFE78
03F078
ENDCHAR
STARTCHAR 00FD
ENCODING 253
SWIDTH 585 0
DWIDTH 26 0
BBX 22 40 2 -8
BITMAP
000200
000780
000780
000F00
001E00
001C00
003800
000000
000000
000000
F0001C
F0003C
70003C
780038
380078
3C0070
3C0070
1E00F0
1E00E0
0E01E0
0F01C0
0701C0
0783C0
038380
03C780
01C700
01C700
01EF00
00EE00
00FE00
007C00
007C00
003C00
003800
007800
007000
00F000
7FE000
7FC000
7F8000
ENDCHAR
STARTCHAR 00FE
ENCODING 254
SWIDTH 675 0
DWIDTH 30 0
BBX 23 39 4 -6
BITMAP
E00000
E00000
E00000
E00000
E00000
E00000
E00000
E00000
E00000
E07E00
E1FFC0
E7FFE0
EF83F0
EE00F8
F8007C
F8003C
F0001C
F0001E
E0001E
E0001E
E0001E
E0001E
E0001E
F0001E
F0001C
F8003C
FC007C
FE00F8
EF83F0
E7FFE0
E1FF80
E07E00
E00000
E00000
E00000
E00000
E00000
E00000
E00000
ENDCHAR
STARTCHAR 00FF
ENCODING 255
SWIDTH 585 0
DWIDTH 26 0
BBX 22 38 2 -8
BITMAP
078780
078780
078780
078780
078780
000000
000000
000000
F0001C
F0003C
70003C
780038
380078
3C0070
3C0070
1E00F0
1E00E0
0E01E0
0F01C0
0701C0
0783C0
038380
03C780
01C700
01C700
01EF00
00EE00
00FE00
007C00
007C00
003C00
003800
007800
007000
00F000
7FE000
7FC000
7F8000
ENDCHAR
STARTCHAR 0131
ENCODING 305
SWIDTH 270 0
DWIDTH 12 0
BBX 4 23 4 0
BITMAP
F0
F0
F0
F0
F0
F0
F0
F0
F0
F0
F0
F0
F0
F0
F0
F0
F0
F0
F0
F0
F0
F0
F0
ENDCHAR
STARTCHAR 0141
ENCODING 321
SWIDTH 652 0
DWIDTH 29 0
BBX 25 31 2 1
BITMAP
0E000000
0E000000
0E000000
0E000000
0E000000
0E000000
0E000000
0E000000
0E000000
0E000000
0E008000
0E078000
0E3F8000
0FFF8000
1FFC0000
FFC00000
FE000000
FE000000
8E000000
0E000000
0E000000
0E000000
0E000000
0E000000
0E000000
0E000000
0E000000
0E000000
0FFFFF80
0FFFFF80
0FFFFF80
ENDCHAR
STARTCHAR 0142
ENCODING 322
SWIDTH 315 0
DWIDTH 14 0
BBX 10 32 2 1
BITMAP
0E00
0E00
0E00
0E00
0E00
0E00
0E00
0E00
0E00
0E00
0E00
0E00
0E00
0FC0
1FC0
FFC0
FF00
FE00
8E00
0E00
0E00
0E00
0E00
0E00
0E00
0E00
0E00
0E00
0E00
0E00
0E00
0E00
ENDCHAR
STARTCHAR 0152
ENCODING 338
SWIDTH 1125 0
DWIDTH 50 0
BBX 45 31 3 1
BITMAP
000FFFFFFFF0
007FFFFFFFF0
01FFFFFFFFF0
03F801C00000
07C001C00000
0F8001C00000
1E0001C00000
3C0001C00000
3C0001C00000
780001C00000
780001C00000
700001C00000
F00001C00000
F00001C00000
F00001FFFFC0
F00001FFFFC0
F00001FFFFC0
F00001C00000
F00001C00000
700001C00000
780001C00000
780001C00000
3C0001C00000
3E0001C00000
1F0001C00000
0F8001C00000
07E001C00000
03FC01C00000
01FFFFFFFFF8
007FFFFFFFF8
000FFFFFFFF8
ENDCHAR
STARTCHAR 0153
ENCODING 339
SWIDTH 1057 0
DWIDTH 47 0
BBX 42 23 2 0
BITMAP
007F0007E000
01FFC03FF800
07FFF07FFE00
0F81F8F81F00
1E007DE00F80
3C003DC00780
38001F8003C0
78000F8003C0
70000F8001C0
70000F0001C0
F00007FFFFC0
F00007FFFFC0
F00007FFFFC0
700007000000
70000F800000
78000F800000
3C001FC00000
3C003DC00100
1F0079E00380
0F81F8F80F80
07FFE07FFF00
03FFC01FFC00
007E0007F000
ENDCHAR
STARTCHAR 0160
ENCODING 352
SWIDTH 630 0
DWIDTH 28 0
BBX 23 39 3 1
BITMAP
038380
01C700
01EE00
00FE00
007C00
003800
000000
000000
01FF00
07FFE0
1FFFF0
3F03FC
3C0078
780010
700000
700000
700000
700000
780000
7C0000
3F0000
1FE000
0FFE00
03FFC0
007FF0
0007F8
0000FC
00003C
00001E
00001E
00001E
00001E
60001C
F0003C
FC007C
7F81F8
1FFFF0
07FFC0
00FF00
ENDCHAR
STARTCHAR 0161
ENCODING 353
SWIDTH 495 0
DWIDTH 22 0
BBX 18 32 2 0
BITMAP
1C0E00
0E1C00
07B800
03F800
03F000
01E000
000000
000000
000000
03F800
0FFE00
1FFF80
3C0F00
780100
700000
700000
780000
7C0000
3F8000
1FF000
07FE00
00FF00
001F80
000780
0003C0
0003C0
0003C0
700380
FC0780
7FFF00
1FFE00
03F800
ENDCHAR
STARTCHAR 0178
ENCODING 376
SWIDTH 720 0
DWIDTH 32 0
BBX 28 38 2 0
BITMAP
00F0F000
00F0F000
00F0F000
00F0F000
00000000
00000000
00000000
F00000F0
F80001E0
780001E0
3C0003C0
3E000780
1E000780
0F000F00
0F801E00
07801E00
03C03C00
03E07800
01E07800
00F0F000
0079E000
0079E000
003FC000
001F8000
001F0000
000F0000
000F0000
000F0000
000F0000
000F0000
000F0000
000F0000
000F0000
000F0000
000F0000
000F0000
000F0000
000F0000
ENDCHAR
STARTCHAR 017D
ENCODING 381
SWIDTH 697 0
DWIDTH 31 0
BBX 25 40 3 0
BITMAP
01C0E000
01E1C000
00F38000
007F0000
003E0000
001E0000
00000000
00000000
00000000
7FFFFF80
7FFFFF80
7FFFFF80
00000F00
00001E00
00003C00
00007C00
00007800
0000F000
0001E000
0003C000
0007C000
00078000
000F0000
001E0000
003C0000
003C0000
00780000
00F00000
01E00000
03C00000
03C00000
07800000
0F000000
1E000000
3E000000
3C000000
78000000
FFFFFF80
FFFFFF80
FFFFFF80
ENDCHAR
STARTCHAR 017E
ENCODING 382
SWIDTH 562 0
DWIDTH 25 0
BBX 20 32 2 1
BITMAP
070700
038F00
01FE00
00FC00
00F800
007000
000000
000000
000000
7FFFF0
7FFFF0
7FFFF0
0001E0
0003C0
0003C0
000780
000F00
001E00
003C00
007800
00F000
00F000
01E000
03C000
078000
0F0000
1E0000
3C0000
3C0000
7FFFF0
FFFFF0
FFFFF0
ENDCHAR
STARTCHAR 0192
ENCODING 402
SWIDTH 517 0
DWIDTH 23 0
BBX 19 31 2 1
BITMAP
0007E0
001FE0
003FE0
003C00
007800
007800
007000
00F000
00F000
00F000
00E000
1FFFC0
1FFFC0
1FFFC0
01E000
01E000
01C000
01C000
03C000
03C000
03C000
038000
038000
078000
078000
078000
070000
0F0000
FE0000
FE0000
F80000
ENDCHAR
STARTCHAR 02C6
ENCODING 710
SWIDTH 495 0
DWIDTH 22 0
BBX 12 6 5 27
BITMAP
0F00
1F80
3FC0
39E0
70F0
E070
ENDCHAR
STARTCHAR 02C7
ENCODING 711
SWIDTH 495 0
DWIDTH 22 0
BBX 11 6 6 27
BITMAP
E0E0
F3C0
7F80
3F00
1E00
0E00
ENDCHAR
STARTCHAR 02D8
ENCODING 728
SWIDTH 495 0
DWIDTH 22 0
BBX 13 6 5 27
BITMAP
C038
E070
F8F0
7FE0
3FC0
0600
ENDCHAR
STARTCHAR 02D9
ENCODING 729
SWIDTH 495 0
DWIDTH 22 0
BBX 4 5 9 26
BITMAP
F0
F0
F0
F0
F0
ENDCHAR
STARTCHAR 02DA
ENCODING 730
SWIDTH 495 0
DWIDTH 22 0
BBX 9 9 7 27
BITMAP
3E00
7700
C300
8180
8180
C180
E300
7E00
0800
ENDCHAR
STARTCHAR 02DB
ENCODING 731
SWIDTH 495 0
DWIDTH 22 0
BBX 8 7 8 -7
BITMAP
E0
E0
E0
F0
78
7F
1F
ENDCHAR
STARTCHAR 02DC
ENCODING 732
SWIDTH 495 0
DWIDTH 22 0
BBX 14 5 4 26
BITMAP
3E0C
7FBC
7FFC
E3F8
C060
ENDCHAR
STARTCHAR 02DD
ENCODING 733
SWIDTH 495 0
DWIDTH 22 0
BBX 14 7 4 26
BITMAP
0810
1E3C
3E3C
3C78
78F0
F0E0
E1C0
ENDCHAR
STARTCHAR 03A9
ENCODING 937
SWIDTH 742 0
DWIDTH 33 0
BBX 30 32 2 1
BITMAP
03FC01FC
07FC07FC
0FDC07FC
0F000F00
1E000E00
1E000E00
1E000E00
1C001E00
1C001E00
FFFCFFFC
FFFCFFFC
FFFCFFFC
1E001E00
1E001E00
1E001E00
1E001E00
1E001E00
1E001E00
1E001E00
1E001E00
1E001E00
1E001E00
1E001E00
1E001E00
1E001E00
1E001E00
1E001E00
1E001E00
1E001E00
1E001E00
1E001E00
1E001E00
ENDCHAR
STARTCHAR 03C0
ENCODING 960
SWIDTH 832 0
DWIDTH 37 0
BBX 33 31 2 1
BITMAP
000FF80000
00781F0000
00C001C000
0300006000
0600003000
0C00001800
1800000C00
101FF00400
301FFC0600
20181E0200
6018070300
4018070100
4018070100
4018070100
C018060180
C0183E0180
C01FFC0180
401FE00100
4018000100
4018000300
6018000300
2018000200
3018000600
1000000400
1800000800
0C00001800
0600003000
038000E000
00E0038000
007E3E0000
000FF00000
ENDCHAR
STARTCHAR 2013
ENCODING 8211
SWIDTH 517 0
DWIDTH 23 0
BBX 18 3 3 12
BITMAP
FFFFC0
FFFFC0
FFFFC0
ENDCHAR
STARTCHAR 2014
ENCODING 8212
SWIDTH 900 0
DWIDTH 40 0
BBX 34 3 3 12
BITMAP
FFFFFFFFC0
FFFFFFFFC0
FFFFFFFFC0
ENDCHAR
STARTCHAR 2018
ENCODING 8216
SWIDTH 247 0
DWIDTH 11 0
BBX 5 10 3 22
BITMAP
18
38
60
E0
E0
F0
F0
F0
F0
F0
ENDCHAR
STARTCHAR 2019
ENCODING 8217
SWIDTH 247 0
DWIDTH 11 0
BBX 6 10 2 22
BITMAP
3C
3C
3C
3C
3C
1C
18
38
F0
40
ENDCHAR
STARTCHAR 201A
ENCODING 8218
SWIDTH 247 0
DWIDTH 11 0
BBX 6 10 2 -6
BITMAP
7C
7C
7C
7C
7C
18
18
38
70
E0
ENDCHAR
STARTCHAR 201C
ENCODING 8220
SWIDTH 450 0
DWIDTH 20 0
BBX 14 10 3 22
BITMAP
180C
383C
6030
E070
E070
F078
F078
F078
F078
F078
ENDCHAR
STARTCHAR 201D
ENCODING 8221
SWIDTH 450 0
DWIDTH 20 0
BBX 15 10 2 22
BITMAP
3C1E
3C1E
3C1E
3C1E
3C1E
1C0C
180C
381C
F078
4060
ENDCHAR
STARTCHAR 201E
ENCODING 8222
SWIDTH 450 0
DWIDTH 20 0
BBX 14 10 2 -6
BITMAP
7C3C
7C3C
7C3C
7C3C
7C3C
180C
180C
381C
7038
E070
ENDCHAR
STARTCHAR 2020
ENCODING 8224
SWIDTH 405 0
DWIDTH 18 0
BBX 13 21 3 11
BITMAP
0600
0600
0600
0600
0600
0600
FFF8
FFF8
0600
0600
0600
0600
0600
0600
0600
0600
0600
0600
0600
0600
0600
ENDCHAR
STARTCHAR 2021
ENCODING 8225
SWIDTH 427 0
DWIDTH 19 0
BBX 13 31 3 1
BITMAP
0700
0700
0700
0700
0700
0300
FFF8
FFF8
0300
0300
0300
0300
0700
0700
0700
0700
0700
0700
0700
0700
0300
0300
0300
FFF8
FFF8
0300
0700
0700
0700
0700
0700
ENDCHAR
STARTCHAR 2022
ENCODING 8226
SWIDTH 472 0
DWIDTH 21 0
BBX 11 11 5 10
BITMAP
3F80
7FC0
7FE0
FFE0
FFE0
FFE0
FFE0
FFE0
7FE0
3FC0
1F00
ENDCHAR
STARTCHAR 2026
ENCODING 8230
SWIDTH 720 0
DWIDTH 32 0
BBX 26 5 3 0
BITMAP
F01E03C0
F01E03C0
F01E03C0
F01E03C0
F01E03C0
ENDCHAR
STARTCHAR 2030
ENCODING 8240
SWIDTH 1215 0
DWIDTH 54 0
BBX 49 31 2 1
BITMAP
07C00038000000
1FF00070000000
3C7800F0000000
703800E0000000
701C01C0000000
701C0380000000
E01C0780000000
E01C0700000000
E01C0E00000000
701C1C00000000
701C1C00000000
783C3800000000
3C787000000000
1FF0F000000000
0FE0E000000000
0001C060002000
000383F801FC00
000787FE03FE00
00070F1E078F00
000E0E070E0780
001C1C070E0380
003C1C038E0380
00381C039C0380
00701C039C0180
00E01C039C0380
00E01C030E0380
01C01C070E0380
03800E0F0F0700
07000F9E078F00
070007FC03FE00
0E0001F000F800
ENDCHAR
STARTCHAR 2039
ENCODING 8249
SWIDTH 337 0
DWIDTH 15 0
BBX 10 19 2 2
BITMAP
0180
03C0
0780
0700
0F00
1E00
3C00
3800
7800
F000
7800
3800
3C00
1E00
0F00
0700
0780
03C0
0100
ENDCHAR
STARTCHAR 203A
ENCODING 8250
SWIDTH 337 0
DWIDTH 15 0
BBX 9 19 3 2
BITMAP
6000
F000
F000
7800
3C00
1E00
1E00
0F00
0780
0380
0780
0F00
1E00
1C00
3C00
7800
7000
E000
6000
ENDCHAR
STARTCHAR 2044
ENCODING 8260
SWIDTH 427 0
DWIDTH 19 0
BBX 24 38 -3 -5
BITMAP
000007
00000E
00000E
00001C
00003C
000038
000078
000070
0000F0
0000E0
0001E0
0001C0
000380
000380
000700
000F00
000E00
001E00
001C00
003C00
003800
007800
007000
00E000
00E000
01C000
03C000
038000
078000
070000
0F0000
0E0000
1E0000
1C0000
380000
380000
700000
F00000
ENDCHAR
STARTCHAR 2122
ENCODING 8482
SWIDTH 697 0
DWIDTH 31 0
BBX 28 14 1 18
BITMAP
FFE30070
FFE38070
0603C0F0
0603C1F0
060361B0
06037330
06033730
06031E30
06031C30
06030C30
06030030
06030030
06030030
06030030
ENDCHAR
STARTCHAR 221A
ENCODING 8730
SWIDTH 990 0
DWIDTH 44 0
BBX 38 32 2 1
BITMAP
03FC01FC1C
07FC07FC1C
0FCC07CC1C
0F000F001C
1E000E001C
1E000E001C
1E000E001C
1C001E001C
1C001E001C
FFFCFFFC1C
FFFCFFFC1C
FFFCFFFC1C
1E001E001C
1E001E001C
1E001E001C
1E001E001C
1E001E001C
1E001E001C
1E001E001C
1E001E001C
1E001E001C
1E001E001C
1E001E001C
1E001E001C
1E001E001C
1E001E001C
1E001E001C
1E001E001C
1E001E001C
1E001E001C
1E001E001C
1E001E001C
ENDCHAR
STARTCHAR 2248
ENCODING 8776
SWIDTH 990 0
DWIDTH 44 0
BBX 38 32 2 1
BITMAP
03FC01FC1C
07FC07FC1C
0FDC07FC1C
0F000F001C
1E000E0000
1E000E0000
1E000E0000
1C001E0000
1C001E0000
FFFCFFFC1C
FFFCFFFC1C
FFFCFFFC1C
1E001E001C
1E001E001C
1E001E001C
1E001E001C
1E001E001C
1E001E001C
1E001E001C
1E001E001C
1E001E001C
1E001E001C
1E001E001C
1E001E001C
1E001E001C
1E001E001C
1E001E001C
1E001E001C
1E001E001C
1E001E001C
1E001E001C
1E001E001C
ENDCHAR
STARTCHAR F8FF
ENCODING 63743
SWIDTH 967 0
DWIDTH 43 0
BBX 35 38 4 -5
BITMAP
FFFFFFFFE0
FFFFFFFFE0
FFFFFFFFE0
FFFDFFFFE0
FFFFFFFFE0
FFFFFFFFE0
FFFFFFFFE0
FFFFFFFFE0
DE67F37EE0
EF7F3FDEE0
FFFFFFFFE0
FFFFFFFFE0
FFFFFFFFE0
C070C84060
C040C84060
CCC8E0C060
F8E0F1F1E0
CCF8F1F1E0
C078F1F1E0
FFFFFFFFE0
FFFFFFFFE0
FFFFFFFFE0
FFFFFFFFE0
FE7B7FFEE0
FFFBDBFEE0
FFFFFFFFE0
FFFFFFFFE0
FFFFFFFFE0
FFFFFFFFE0
FF2BE29FE0
FF797F9FE0
FFFFFFFFE0
FFFFFFFFE0
0000000000
0000000000
0000000000
3907160300
0091542480
ENDCHAR
STARTCHAR FB01
ENCODING 64257
SWIDTH 630 0
DWIDTH 28 0
BBX 22 32 2 1
BITMAP
03FC3C
07FC3C
0FDC3C
0F003C
1E0000
1E0000
1E0000
1C0000
1C0000
FFFC3C
FFFC3C
FFFC3C
1E003C
1E003C
1E003C
1E003C
1E003C
1E003C
1E003C
1E003C
1E003C
1E003C
1E003C
1E003C
1E003C
1E003C
1E003C
1E003C
1E003C
1E003C
1E003C
1E003C
ENDCHAR
STARTCHAR FB02
ENCODING 64258
SWIDTH 630 0
DWIDTH 28 0
BBX 22 32 2 1
BITMAP
03FC3C
07FC3C
0FCC3C
0F003C
1E003C
1E003C
1E003C
1C003C
1C003C
FFFC3C
FFFC3C
FFFC3C
1E003C
1E003C
1E003C
1E003C
1E003C
1E003C
1E003C
1E003C
1E003C
1E003C
1E003C
1E003C
1E003C
1E003C
1E003C
1E003C
1E003C
1E003C
1E003C
1E003C
ENDCHAR
ENDFONT
